<svg xmlns="http://www.w3.org/2000/svg" xmlns:xlink="http://www.w3.org/1999/xlink" width="264" zoomAndPan="magnify" viewBox="0 0 198 66.75" height="89" preserveAspectRatio="xMidYMid meet" version="1.0"><defs><g/><clipPath id="fbe379a1aa"><path d="M 0.371094 0 L 52.671875 0 L 52.671875 60.523438 L 0.371094 60.523438 Z M 0.371094 0 " clip-rule="nonzero"/></clipPath><clipPath id="ab27dc5bc6"><path d="M 15.9375 24.960938 L 197.628906 24.960938 L 197.628906 60.359375 L 15.9375 60.359375 Z M 15.9375 24.960938 " clip-rule="nonzero"/></clipPath><clipPath id="9f389c3a9e"><path d="M 33.636719 24.960938 L 179.808594 24.960938 C 184.503906 24.960938 189.007812 26.824219 192.324219 30.144531 C 195.644531 33.460938 197.511719 37.964844 197.511719 42.660156 C 197.511719 47.355469 195.644531 51.855469 192.324219 55.175781 C 189.007812 58.496094 184.503906 60.359375 179.808594 60.359375 L 33.636719 60.359375 C 28.941406 60.359375 24.441406 58.496094 21.121094 55.175781 C 17.800781 51.855469 15.9375 47.355469 15.9375 42.660156 C 15.9375 37.964844 17.800781 33.460938 21.121094 30.144531 C 24.441406 26.824219 28.941406 24.960938 33.636719 24.960938 Z M 33.636719 24.960938 " clip-rule="nonzero"/></clipPath></defs><g clip-path="url(#fbe379a1aa)"><path fill="#ed2828" d="M 43.65625 60.34375 L 9.367188 60.34375 C 8.777344 60.339844 8.195312 60.285156 7.621094 60.167969 C 7.042969 60.050781 6.484375 59.882812 5.9375 59.65625 C 5.394531 59.429688 4.878906 59.15625 4.390625 58.828125 C 3.902344 58.5 3.449219 58.128906 3.035156 57.714844 C 2.617188 57.296875 2.246094 56.84375 1.917969 56.355469 C 1.59375 55.867188 1.316406 55.351562 1.089844 54.808594 C 0.863281 54.265625 0.695312 53.703125 0.578125 53.128906 C 0.464844 52.550781 0.40625 51.96875 0.40625 51.378906 L 0.40625 27.34375 C 0.402344 26.199219 0.617188 25.097656 1.042969 24.039062 C 1.472656 22.980469 2.085938 22.039062 2.882812 21.21875 L 21.226562 2.25 C 21.566406 1.894531 21.941406 1.578125 22.347656 1.296875 C 22.753906 1.015625 23.183594 0.78125 23.640625 0.585938 C 24.09375 0.394531 24.5625 0.246094 25.046875 0.148438 C 25.527344 0.0507812 26.019531 0 26.511719 0 C 27.003906 0 27.492188 0.0507812 27.976562 0.148438 C 28.460938 0.246094 28.929688 0.394531 29.382812 0.585938 C 29.839844 0.78125 30.269531 1.015625 30.675781 1.296875 C 31.082031 1.578125 31.457031 1.894531 31.796875 2.25 L 51.851562 22.988281 C 52.105469 23.246094 52.296875 23.546875 52.433594 23.882812 C 52.566406 24.21875 52.632812 24.570312 52.625 24.933594 C 52.621094 25.292969 52.546875 25.644531 52.402344 25.976562 C 52.257812 26.308594 52.054688 26.601562 51.796875 26.851562 C 51.535156 27.105469 51.234375 27.296875 50.898438 27.429688 C 50.558594 27.5625 50.210938 27.625 49.847656 27.621094 C 49.484375 27.613281 49.136719 27.535156 48.804688 27.390625 C 48.472656 27.246094 48.179688 27.042969 47.929688 26.78125 L 27.875 6.050781 C 27.699219 5.863281 27.492188 5.714844 27.253906 5.613281 C 27.019531 5.511719 26.769531 5.460938 26.511719 5.460938 C 26.253906 5.460938 26.003906 5.511719 25.769531 5.613281 C 25.53125 5.714844 25.324219 5.863281 25.148438 6.050781 L 6.804688 25.011719 C 6.175781 25.664062 5.863281 26.445312 5.867188 27.351562 L 5.867188 51.378906 C 5.867188 51.84375 5.957031 52.292969 6.136719 52.722656 C 6.316406 53.152344 6.566406 53.53125 6.898438 53.859375 C 7.226562 54.1875 7.605469 54.441406 8.035156 54.617188 C 8.464844 54.796875 8.910156 54.886719 9.375 54.886719 L 43.664062 54.886719 C 44.027344 54.886719 44.375 54.957031 44.707031 55.09375 C 45.042969 55.234375 45.335938 55.429688 45.59375 55.6875 C 45.847656 55.941406 46.046875 56.238281 46.183594 56.570312 C 46.320312 56.90625 46.390625 57.253906 46.390625 57.613281 C 46.390625 57.976562 46.320312 58.324219 46.183594 58.660156 C 46.046875 58.992188 45.847656 59.289062 45.59375 59.542969 C 45.335938 59.800781 45.042969 59.996094 44.707031 60.132812 C 44.375 60.273438 44.027344 60.34375 43.664062 60.34375 Z M 43.65625 60.34375 " fill-opacity="1" fill-rule="nonzero"/></g><g clip-path="url(#ab27dc5bc6)"><g clip-path="url(#9f389c3a9e)"><path fill="#ed2828" d="M 15.9375 24.960938 L 197.5 24.960938 L 197.5 60.359375 L 15.9375 60.359375 Z M 15.9375 24.960938 " fill-opacity="1" fill-rule="nonzero"/></g></g><g fill="#ffffff" fill-opacity="1"><g transform="translate(26.598241, 50.974623)"><g><path d="M 3.75 0 L 3.75 -8.234375 L 9.65625 0 L 11.984375 0 L 5.53125 -8.78125 L 11.984375 -17.546875 L 9.65625 -17.546875 L 3.75 -9.296875 L 3.75 -17.546875 L 1.9375 -17.546875 L 1.9375 0 Z M 3.75 0 "/></g></g></g><g fill="#ffffff" fill-opacity="1"><g transform="translate(38.828802, 50.974623)"><g><path d="M 10.96875 -5.671875 C 10.96875 -4.5625 10.578125 -3.59375 9.8125 -2.78125 C 9.03125 -1.96875 8.078125 -1.546875 6.96875 -1.546875 C 5.828125 -1.546875 4.875 -1.96875 4.109375 -2.78125 C 3.328125 -3.59375 2.96875 -4.5625 2.96875 -5.671875 C 2.96875 -6.765625 3.328125 -7.75 4.109375 -8.5625 C 4.875 -9.390625 5.828125 -9.8125 6.96875 -9.8125 C 8.078125 -9.8125 9.03125 -9.390625 9.8125 -8.5625 C 10.578125 -7.75 10.96875 -6.765625 10.96875 -5.671875 Z M 12.78125 0 L 12.78125 -11.359375 L 10.96875 -11.359375 L 10.96875 -9.390625 C 10.859375 -9.546875 10.734375 -9.671875 10.640625 -9.8125 C 9.546875 -11 8.234375 -11.609375 6.6875 -11.609375 C 5.109375 -11.609375 3.796875 -11 2.703125 -9.8125 C 1.671875 -8.625 1.15625 -7.25 1.15625 -5.671875 C 1.15625 -4.078125 1.671875 -2.703125 2.703125 -1.546875 C 3.796875 -0.328125 5.109375 0.265625 6.6875 0.265625 C 8.234375 0.265625 9.546875 -0.328125 10.640625 -1.546875 C 10.734375 -1.65625 10.859375 -1.78125 10.96875 -1.9375 L 10.96875 0 Z M 12.78125 0 "/></g></g></g><g fill="#ffffff" fill-opacity="1"><g transform="translate(53.536434, 50.974623)"><g><path d="M 3.75 0 L 3.75 -19.359375 L 1.9375 -19.359375 L 1.9375 0 Z M 3.75 0 "/></g></g></g><g fill="#ffffff" fill-opacity="1"><g transform="translate(59.213065, 50.974623)"><g><path d="M 3.75 0 L 3.75 -5.453125 L 8.203125 0 L 10.609375 0 L 5.625 -5.859375 L 10.296875 -11.390625 L 7.90625 -11.390625 L 3.75 -6.25 L 3.75 -19.359375 L 1.9375 -19.359375 L 1.9375 0 Z M 3.75 0 "/></g></g></g><g fill="#ffffff" fill-opacity="1"><g transform="translate(70.07607, 50.974623)"><g><path d="M 9.78125 -1.9375 L 9.78125 0 L 11.59375 0 L 11.59375 -11.359375 L 9.78125 -11.359375 L 9.78125 -6.609375 C 9.78125 -5 9.46875 -3.796875 8.875 -2.890625 C 8.3125 -2.015625 7.3125 -1.578125 5.90625 -1.578125 C 5.140625 -1.578125 4.5625 -1.828125 4.234375 -2.34375 C 3.890625 -2.859375 3.75 -3.515625 3.75 -4.265625 L 3.75 -11.359375 L 1.9375 -11.359375 L 1.9375 -4.265625 C 1.9375 -2.9375 2.265625 -1.859375 3 -1 C 3.71875 -0.1875 4.703125 0.234375 5.984375 0.234375 C 7.671875 0.234375 8.9375 -0.484375 9.78125 -1.9375 Z M 9.78125 -1.9375 "/></g></g></g><g fill="#ffffff" fill-opacity="1"><g transform="translate(83.209732, 50.974623)"><g><path d="M 3.75 0 L 3.75 -19.359375 L 1.9375 -19.359375 L 1.9375 0 Z M 3.75 0 "/></g></g></g><g fill="#ffffff" fill-opacity="1"><g transform="translate(88.886363, 50.974623)"><g><path d="M 10.96875 -5.671875 C 10.96875 -4.5625 10.578125 -3.59375 9.8125 -2.78125 C 9.03125 -1.96875 8.078125 -1.546875 6.96875 -1.546875 C 5.828125 -1.546875 4.875 -1.96875 4.109375 -2.78125 C 3.328125 -3.59375 2.96875 -4.5625 2.96875 -5.671875 C 2.96875 -6.765625 3.328125 -7.75 4.109375 -8.5625 C 4.875 -9.390625 5.828125 -9.8125 6.96875 -9.8125 C 8.078125 -9.8125 9.03125 -9.390625 9.8125 -8.5625 C 10.578125 -7.75 10.96875 -6.765625 10.96875 -5.671875 Z M 12.78125 0 L 12.78125 -11.359375 L 10.96875 -11.359375 L 10.96875 -9.390625 C 10.859375 -9.546875 10.734375 -9.671875 10.640625 -9.8125 C 9.546875 -11 8.234375 -11.609375 6.6875 -11.609375 C 5.109375 -11.609375 3.796875 -11 2.703125 -9.8125 C 1.671875 -8.625 1.15625 -7.25 1.15625 -5.671875 C 1.15625 -4.078125 1.671875 -2.703125 2.703125 -1.546875 C 3.796875 -0.328125 5.109375 0.265625 6.6875 0.265625 C 8.234375 0.265625 9.546875 -0.328125 10.640625 -1.546875 C 10.734375 -1.65625 10.859375 -1.78125 10.96875 -1.9375 L 10.96875 0 Z M 12.78125 0 "/></g></g></g><g fill="#ffffff" fill-opacity="1"><g transform="translate(103.593995, 50.974623)"><g><path d="M 0.515625 -9.671875 L 3.359375 -9.671875 L 3.359375 0 L 5.15625 0 L 5.15625 -9.671875 L 7.96875 -9.671875 L 7.96875 -11.359375 L 5.15625 -11.359375 L 5.15625 -15.765625 L 3.359375 -15.765625 L 3.359375 -11.359375 L 0.515625 -11.359375 Z M 0.515625 -9.671875 "/></g></g></g><g fill="#ffffff" fill-opacity="1"><g transform="translate(112.083135, 50.974623)"><g><path d="M 11.234375 -5.734375 C 11.234375 -4.59375 10.8125 -3.640625 10.015625 -2.84375 C 9.1875 -2.015625 8.234375 -1.625 7.09375 -1.625 C 5.96875 -1.625 4.984375 -2.015625 4.1875 -2.84375 C 3.359375 -3.640625 2.96875 -4.59375 2.96875 -5.734375 C 2.96875 -6.859375 3.359375 -7.828125 4.1875 -8.640625 C 4.984375 -9.453125 5.96875 -9.859375 7.09375 -9.859375 C 8.234375 -9.859375 9.1875 -9.453125 10.015625 -8.640625 C 10.8125 -7.828125 11.234375 -6.859375 11.234375 -5.734375 Z M 13.03125 -5.734375 C 13.03125 -7.359375 12.4375 -8.75 11.28125 -9.90625 C 10.125 -11.078125 8.71875 -11.671875 7.09375 -11.671875 C 5.453125 -11.671875 4.046875 -11.078125 2.890625 -9.90625 C 1.734375 -8.75 1.15625 -7.359375 1.15625 -5.734375 C 1.15625 -4.078125 1.734375 -2.6875 2.890625 -1.546875 C 4.046875 -0.390625 5.46875 0.1875 7.09375 0.1875 C 8.703125 0.1875 10.125 -0.390625 11.28125 -1.546875 C 12.4375 -2.6875 13.03125 -4.078125 13.03125 -5.734375 Z M 13.03125 -5.734375 "/></g></g></g><g fill="#ffffff" fill-opacity="1"><g transform="translate(126.274708, 50.974623)"><g><path d="M 7.765625 -9.015625 L 7.765625 -11.359375 C 7.40625 -11.515625 7.015625 -11.59375 6.640625 -11.59375 C 5.34375 -11.59375 4.40625 -10.859375 3.8125 -9.46875 L 3.75 -9.015625 L 3.75 -11.359375 L 1.9375 -11.359375 L 1.9375 0 L 3.75 0 L 3.75 -5.671875 C 3.75 -6.609375 3.953125 -7.4375 4.390625 -8.1875 C 4.59375 -8.5625 4.875 -8.90625 5.21875 -9.15625 C 5.546875 -9.421875 5.96875 -9.578125 6.421875 -9.578125 C 6.890625 -9.578125 7.328125 -9.375 7.765625 -9.015625 Z M 7.765625 -9.015625 "/></g></g></g><g fill="#ffffff" fill-opacity="1"><g transform="translate(134.299401, 50.974623)"><g/></g></g><g fill="#ffffff" fill-opacity="1"><g transform="translate(141.266175, 50.974623)"><g><path d="M 3.75 -8.703125 L 3.75 -15.828125 L 7.828125 -15.828125 C 8.875 -15.828125 9.734375 -15.484375 10.375 -14.84375 C 11 -14.171875 11.328125 -13.34375 11.328125 -12.3125 C 11.328125 -11.25 11 -10.40625 10.328125 -9.703125 C 9.65625 -9.03125 8.828125 -8.703125 7.828125 -8.703125 Z M 13.140625 -12.265625 C 13.140625 -13.8125 12.578125 -15.078125 11.484375 -16.078125 C 10.40625 -17.0625 9.109375 -17.546875 7.5625 -17.546875 L 1.9375 -17.546875 L 1.9375 0 L 3.75 0 L 3.75 -6.9375 L 7.5625 -6.9375 C 9.109375 -6.9375 10.421875 -7.4375 11.484375 -8.421875 C 12.578125 -9.453125 13.140625 -10.71875 13.140625 -12.265625 Z M 13.140625 -12.265625 "/></g></g></g><g fill="#ffffff" fill-opacity="1"><g transform="translate(154.915887, 50.974623)"><g><path d="M 13.390625 -4.875 C 13.390625 -6.125 13.09375 -7.171875 12.5 -8 C 11.875 -8.828125 11.046875 -9.390625 10.046875 -9.671875 C 10.640625 -9.9375 11.15625 -10.40625 11.53125 -11.09375 C 11.71875 -11.40625 11.84375 -11.71875 11.953125 -12.046875 C 12.046875 -12.390625 12.109375 -12.859375 12.109375 -13.453125 C 12.109375 -14.015625 11.953125 -14.609375 11.6875 -15.171875 C 10.921875 -16.75 9.234375 -17.546875 6.6875 -17.546875 L 1.9375 -17.546875 L 1.9375 0 L 7.3125 0 C 9.09375 0 10.5 -0.390625 11.59375 -1.21875 C 12.125 -1.625 12.578125 -2.171875 12.90625 -2.84375 C 13.21875 -3.484375 13.390625 -4.15625 13.390625 -4.875 Z M 10.296875 -13.171875 C 10.296875 -12.203125 10.015625 -11.515625 9.453125 -11.046875 C 8.875 -10.578125 8.125 -10.34375 7.203125 -10.34375 L 3.75 -10.34375 L 3.75 -15.828125 L 6.6875 -15.828125 C 9.09375 -15.828125 10.296875 -14.921875 10.296875 -13.171875 Z M 11.59375 -5.234375 C 11.59375 -4.1875 11.234375 -3.328125 10.5 -2.6875 C 9.8125 -2.046875 8.90625 -1.734375 7.828125 -1.734375 L 3.75 -1.734375 L 3.75 -8.546875 L 8.109375 -8.546875 C 9.015625 -8.546875 9.8125 -8.234375 10.5 -7.609375 C 10.8125 -7.328125 11.078125 -7 11.28125 -6.609375 C 11.484375 -6.1875 11.59375 -5.75 11.59375 -5.234375 Z M 11.59375 -5.234375 "/></g></g></g><g fill="#ffffff" fill-opacity="1"><g transform="translate(168.823633, 50.974623)"><g><path d="M 19.25 -8.203125 L 10.125 -8.203125 L 10.125 -6.640625 L 17.25 -6.640625 C 16.703125 -5.109375 15.796875 -3.875 14.5 -2.96875 C 13.21875 -2.046875 11.765625 -1.59375 10.203125 -1.59375 C 8.1875 -1.59375 6.484375 -2.296875 5.0625 -3.71875 C 3.671875 -5.140625 2.96875 -6.859375 2.96875 -8.859375 C 2.96875 -10.84375 3.671875 -12.546875 5.078125 -13.96875 C 6.484375 -15.359375 8.1875 -16.078125 10.203125 -16.078125 C 11.6875 -16.078125 13.0625 -15.640625 14.28125 -14.796875 C 15.515625 -13.9375 16.390625 -12.828125 16.953125 -11.40625 L 18.875 -11.40625 C 18.28125 -13.34375 17.171875 -14.890625 15.5625 -16.078125 C 13.96875 -17.265625 12.109375 -17.890625 10.015625 -17.890625 C 8.875 -17.890625 7.765625 -17.625 6.6875 -17.171875 C 5.578125 -16.703125 4.625 -16.0625 3.796875 -15.234375 C 2.96875 -14.40625 2.328125 -13.453125 1.859375 -12.359375 C 1.390625 -11.25 1.15625 -10.0625 1.15625 -8.828125 C 1.15625 -7.59375 1.390625 -6.40625 1.859375 -5.3125 C 2.328125 -4.203125 2.96875 -3.25 3.796875 -2.421875 C 4.625 -1.59375 5.578125 -0.953125 6.6875 -0.484375 C 7.765625 -0.03125 8.953125 0.203125 10.203125 0.203125 C 12.3125 0.203125 14.21875 -0.46875 15.921875 -1.828125 C 17.625 -3.21875 18.6875 -4.984375 19.078125 -7.125 Z M 19.25 -8.203125 "/></g></g></g></svg>