<svg xmlns="http://www.w3.org/2000/svg" xmlns:xlink="http://www.w3.org/1999/xlink" width="264" zoomAndPan="magnify" viewBox="0 0 198 66.75" height="89" preserveAspectRatio="xMidYMid meet" version="1.2"><defs><clipPath id="8400a7842b"><path d="M 0.371094 0 L 52.671875 0 L 52.671875 60.523438 L 0.371094 60.523438 Z M 0.371094 0 "/></clipPath><clipPath id="3fdd81d11b"><path d="M 15.9375 24.960938 L 197.628906 24.960938 L 197.628906 60.359375 L 15.9375 60.359375 Z M 15.9375 24.960938 "/></clipPath><clipPath id="b9069cf32c"><path d="M 33.636719 24.960938 L 179.808594 24.960938 C 184.503906 24.960938 189.007812 26.824219 192.324219 30.144531 C 195.644531 33.460938 197.511719 37.964844 197.511719 42.660156 C 197.511719 47.355469 195.644531 51.855469 192.324219 55.175781 C 189.007812 58.496094 184.503906 60.359375 179.808594 60.359375 L 33.636719 60.359375 C 28.941406 60.359375 24.441406 58.496094 21.121094 55.175781 C 17.800781 51.855469 15.9375 47.355469 15.9375 42.660156 C 15.9375 37.964844 17.800781 33.460938 21.121094 30.144531 C 24.441406 26.824219 28.941406 24.960938 33.636719 24.960938 Z M 33.636719 24.960938 "/></clipPath></defs><g id="b3c755669c"><g clip-rule="nonzero" clip-path="url(#8400a7842b)"><path style=" stroke:none;fill-rule:nonzero;fill:#0099f1;fill-opacity:1;" d="M 43.53125 60.167969 L 9.339844 60.167969 C 8.753906 60.167969 8.171875 60.109375 7.597656 59.992188 C 7.023438 59.878906 6.464844 59.710938 5.921875 59.484375 C 5.382812 59.257812 4.867188 58.984375 4.378906 58.65625 C 3.890625 58.332031 3.441406 57.960938 3.027344 57.546875 C 2.609375 57.132812 2.242188 56.679688 1.914062 56.195312 C 1.589844 55.707031 1.3125 55.191406 1.089844 54.648438 C 0.863281 54.109375 0.695312 53.550781 0.578125 52.972656 C 0.464844 52.398438 0.40625 51.816406 0.40625 51.230469 L 0.40625 27.265625 C 0.402344 26.125 0.617188 25.027344 1.042969 23.96875 C 1.46875 22.914062 2.082031 21.976562 2.875 21.160156 L 21.164062 2.242188 C 21.503906 1.890625 21.878906 1.570312 22.285156 1.292969 C 22.6875 1.011719 23.117188 0.777344 23.570312 0.585938 C 24.023438 0.390625 24.492188 0.246094 24.972656 0.148438 C 25.457031 0.0507812 25.945312 0 26.4375 0 C 26.929688 0 27.414062 0.0507812 27.898438 0.148438 C 28.378906 0.246094 28.847656 0.390625 29.300781 0.585938 C 29.753906 0.777344 30.183594 1.011719 30.585938 1.292969 C 30.992188 1.570312 31.367188 1.890625 31.707031 2.242188 L 51.703125 22.921875 C 51.953125 23.179688 52.148438 23.476562 52.28125 23.8125 C 52.414062 24.148438 52.480469 24.5 52.476562 24.859375 C 52.46875 25.222656 52.394531 25.570312 52.25 25.902344 C 52.109375 26.230469 51.90625 26.523438 51.644531 26.777344 C 51.386719 27.027344 51.089844 27.21875 50.75 27.351562 C 50.414062 27.484375 50.066406 27.546875 49.703125 27.539062 C 49.34375 27.53125 48.996094 27.457031 48.664062 27.3125 C 48.332031 27.167969 48.042969 26.964844 47.792969 26.703125 L 27.796875 6.03125 C 27.621094 5.84375 27.414062 5.699219 27.175781 5.597656 C 26.941406 5.496094 26.695312 5.445312 26.4375 5.445312 C 26.179688 5.445312 25.929688 5.496094 25.695312 5.597656 C 25.457031 5.699219 25.253906 5.84375 25.074219 6.03125 L 6.785156 24.941406 C 6.15625 25.589844 5.847656 26.367188 5.851562 27.269531 L 5.851562 51.230469 C 5.851562 51.695312 5.941406 52.140625 6.121094 52.570312 C 6.296875 52.996094 6.550781 53.375 6.878906 53.703125 C 7.207031 54.03125 7.582031 54.28125 8.011719 54.460938 C 8.441406 54.636719 8.886719 54.726562 9.347656 54.726562 L 43.539062 54.726562 C 43.898438 54.726562 44.246094 54.796875 44.578125 54.933594 C 44.914062 55.074219 45.207031 55.269531 45.460938 55.523438 C 45.714844 55.78125 45.914062 56.074219 46.050781 56.40625 C 46.1875 56.738281 46.257812 57.085938 46.257812 57.449219 C 46.257812 57.808594 46.1875 58.15625 46.050781 58.488281 C 45.914062 58.820312 45.714844 59.117188 45.460938 59.371094 C 45.207031 59.625 44.914062 59.824219 44.578125 59.960938 C 44.246094 60.097656 43.898438 60.167969 43.539062 60.167969 Z M 43.53125 60.167969 "/></g><g clip-rule="nonzero" clip-path="url(#3fdd81d11b)"><g clip-rule="nonzero" clip-path="url(#b9069cf32c)"><path style=" stroke:none;fill-rule:nonzero;fill:#0099f1;fill-opacity:1;" d="M 15.9375 24.960938 L 197.5 24.960938 L 197.5 60.359375 L 15.9375 60.359375 Z M 15.9375 24.960938 "/></g></g><g style="fill:#ffffff;fill-opacity:1;"><g transform="translate(26.598239, 50.974619)"><path style="stroke:none" d="M 3.75 0 L 1.9375 0 L 1.9375 -17.546875 L 3.75 -17.546875 L 3.75 -9.3125 L 9.65625 -17.546875 L 11.984375 -17.546875 L 5.53125 -8.78125 L 11.984375 0 L 9.65625 0 L 3.75 -8.234375 Z M 3.75 0 "/></g></g><g style="fill:#ffffff;fill-opacity:1;"><g transform="translate(38.828799, 50.974619)"><path style="stroke:none" d="M 10.96875 -5.671875 C 10.96875 -6.773438 10.585938 -7.738281 9.828125 -8.5625 C 9.054688 -9.394531 8.101562 -9.8125 6.96875 -9.8125 C 5.832031 -9.8125 4.882812 -9.394531 4.125 -8.5625 C 3.351562 -7.738281 2.96875 -6.773438 2.96875 -5.671875 C 2.96875 -4.578125 3.351562 -3.613281 4.125 -2.78125 C 4.882812 -1.957031 5.832031 -1.546875 6.96875 -1.546875 C 8.101562 -1.546875 9.054688 -1.957031 9.828125 -2.78125 C 10.585938 -3.613281 10.96875 -4.578125 10.96875 -5.671875 Z M 12.78125 0 L 10.96875 0 L 10.96875 -1.9375 C 10.863281 -1.800781 10.757812 -1.671875 10.65625 -1.546875 C 9.570312 -0.335938 8.25 0.265625 6.6875 0.265625 C 5.125 0.265625 3.804688 -0.335938 2.734375 -1.546875 C 1.679688 -2.710938 1.15625 -4.085938 1.15625 -5.671875 C 1.15625 -7.253906 1.679688 -8.632812 2.734375 -9.8125 C 3.804688 -11.007812 5.125 -11.609375 6.6875 -11.609375 C 8.25 -11.609375 9.570312 -11.007812 10.65625 -9.8125 C 10.757812 -9.6875 10.863281 -9.554688 10.96875 -9.421875 L 10.96875 -11.359375 L 12.78125 -11.359375 Z M 12.78125 0 "/></g></g><g style="fill:#ffffff;fill-opacity:1;"><g transform="translate(53.53643, 50.974619)"><path style="stroke:none" d="M 3.75 0 L 1.9375 0 L 1.9375 -19.359375 L 3.75 -19.359375 Z M 3.75 0 "/></g></g><g style="fill:#ffffff;fill-opacity:1;"><g transform="translate(59.213061, 50.974619)"><path style="stroke:none" d="M 3.75 0 L 1.9375 0 L 1.9375 -19.359375 L 3.75 -19.359375 L 3.75 -6.265625 L 7.90625 -11.390625 L 10.296875 -11.390625 L 5.625 -5.859375 L 10.609375 0 L 8.203125 0 L 3.75 -5.453125 Z M 3.75 0 "/></g></g><g style="fill:#ffffff;fill-opacity:1;"><g transform="translate(70.076064, 50.974619)"><path style="stroke:none" d="M 9.78125 -1.9375 C 8.9375 -0.488281 7.671875 0.234375 5.984375 0.234375 C 4.710938 0.234375 3.71875 -0.1875 3 -1.03125 C 2.289062 -1.875 1.9375 -2.953125 1.9375 -4.265625 L 1.9375 -11.359375 L 3.75 -11.359375 L 3.75 -4.265625 C 3.75 -3.523438 3.921875 -2.894531 4.265625 -2.375 C 4.585938 -1.84375 5.132812 -1.578125 5.90625 -1.578125 C 7.320312 -1.578125 8.320312 -2.023438 8.90625 -2.921875 C 9.488281 -3.796875 9.78125 -5.023438 9.78125 -6.609375 L 9.78125 -11.359375 L 11.59375 -11.359375 L 11.59375 0 L 9.78125 0 Z M 9.78125 -1.9375 "/></g></g><g style="fill:#ffffff;fill-opacity:1;"><g transform="translate(83.209725, 50.974619)"><path style="stroke:none" d="M 3.75 0 L 1.9375 0 L 1.9375 -19.359375 L 3.75 -19.359375 Z M 3.75 0 "/></g></g><g style="fill:#ffffff;fill-opacity:1;"><g transform="translate(88.886355, 50.974619)"><path style="stroke:none" d="M 10.96875 -5.671875 C 10.96875 -6.773438 10.585938 -7.738281 9.828125 -8.5625 C 9.054688 -9.394531 8.101562 -9.8125 6.96875 -9.8125 C 5.832031 -9.8125 4.882812 -9.394531 4.125 -8.5625 C 3.351562 -7.738281 2.96875 -6.773438 2.96875 -5.671875 C 2.96875 -4.578125 3.351562 -3.613281 4.125 -2.78125 C 4.882812 -1.957031 5.832031 -1.546875 6.96875 -1.546875 C 8.101562 -1.546875 9.054688 -1.957031 9.828125 -2.78125 C 10.585938 -3.613281 10.96875 -4.578125 10.96875 -5.671875 Z M 12.78125 0 L 10.96875 0 L 10.96875 -1.9375 C 10.863281 -1.800781 10.757812 -1.671875 10.65625 -1.546875 C 9.570312 -0.335938 8.25 0.265625 6.6875 0.265625 C 5.125 0.265625 3.804688 -0.335938 2.734375 -1.546875 C 1.679688 -2.710938 1.15625 -4.085938 1.15625 -5.671875 C 1.15625 -7.253906 1.679688 -8.632812 2.734375 -9.8125 C 3.804688 -11.007812 5.125 -11.609375 6.6875 -11.609375 C 8.25 -11.609375 9.570312 -11.007812 10.65625 -9.8125 C 10.757812 -9.6875 10.863281 -9.554688 10.96875 -9.421875 L 10.96875 -11.359375 L 12.78125 -11.359375 Z M 12.78125 0 "/></g></g><g style="fill:#ffffff;fill-opacity:1;"><g transform="translate(103.593986, 50.974619)"><path style="stroke:none" d="M 0.515625 -9.671875 L 0.515625 -11.359375 L 3.359375 -11.359375 L 3.359375 -15.765625 L 5.15625 -15.765625 L 5.15625 -11.359375 L 7.96875 -11.359375 L 7.96875 -9.671875 L 5.15625 -9.671875 L 5.15625 0 L 3.359375 0 L 3.359375 -9.671875 Z M 0.515625 -9.671875 "/></g></g><g style="fill:#ffffff;fill-opacity:1;"><g transform="translate(112.083126, 50.974619)"><path style="stroke:none" d="M 11.234375 -5.734375 C 11.234375 -6.867188 10.828125 -7.835938 10.015625 -8.640625 C 9.203125 -9.453125 8.226562 -9.859375 7.09375 -9.859375 C 5.957031 -9.859375 4.988281 -9.453125 4.1875 -8.640625 C 3.375 -7.835938 2.96875 -6.867188 2.96875 -5.734375 C 2.96875 -4.609375 3.375 -3.644531 4.1875 -2.84375 C 4.988281 -2.03125 5.957031 -1.625 7.09375 -1.625 C 8.226562 -1.625 9.203125 -2.03125 10.015625 -2.84375 C 10.828125 -3.644531 11.234375 -4.609375 11.234375 -5.734375 Z M 13.03125 -5.734375 C 13.03125 -4.078125 12.457031 -2.679688 11.3125 -1.546875 C 10.125 -0.390625 8.71875 0.1875 7.09375 0.1875 C 5.476562 0.1875 4.085938 -0.390625 2.921875 -1.546875 C 1.742188 -2.679688 1.15625 -4.078125 1.15625 -5.734375 C 1.15625 -7.367188 1.742188 -8.769531 2.921875 -9.9375 C 4.066406 -11.09375 5.457031 -11.671875 7.09375 -11.671875 C 8.726562 -11.671875 10.132812 -11.09375 11.3125 -9.9375 C 12.457031 -8.769531 13.03125 -7.367188 13.03125 -5.734375 Z M 13.03125 -5.734375 "/></g></g><g style="fill:#ffffff;fill-opacity:1;"><g transform="translate(126.274698, 50.974619)"><path style="stroke:none" d="M 7.765625 -9.015625 C 7.359375 -9.390625 6.910156 -9.578125 6.421875 -9.578125 C 5.960938 -9.578125 5.566406 -9.445312 5.234375 -9.1875 C 4.890625 -8.914062 4.609375 -8.585938 4.390625 -8.203125 C 3.960938 -7.453125 3.75 -6.609375 3.75 -5.671875 L 3.75 0 L 1.9375 0 L 1.9375 -11.359375 L 3.75 -11.359375 L 3.75 -9.015625 L 3.8125 -9.46875 C 4.414062 -10.882812 5.359375 -11.59375 6.640625 -11.59375 C 7.035156 -11.59375 7.410156 -11.515625 7.765625 -11.359375 Z M 7.765625 -9.015625 "/></g></g><g style="fill:#ffffff;fill-opacity:1;"><g transform="translate(134.29939, 50.974619)"><path style="stroke:none" d=""/></g></g><g style="fill:#ffffff;fill-opacity:1;"><g transform="translate(141.266164, 50.974619)"><path style="stroke:none" d="M 3.75 -8.703125 L 7.828125 -8.703125 C 8.835938 -8.703125 9.671875 -9.046875 10.328125 -9.734375 C 10.992188 -10.421875 11.328125 -11.28125 11.328125 -12.3125 C 11.328125 -13.34375 11.007812 -14.1875 10.375 -14.84375 C 9.738281 -15.5 8.890625 -15.828125 7.828125 -15.828125 L 3.75 -15.828125 Z M 13.140625 -12.265625 C 13.140625 -10.734375 12.597656 -9.457031 11.515625 -8.4375 C 10.441406 -7.4375 9.125 -6.9375 7.5625 -6.9375 L 3.75 -6.9375 L 3.75 0 L 1.9375 0 L 1.9375 -17.546875 L 7.5625 -17.546875 C 9.113281 -17.546875 10.429688 -17.054688 11.515625 -16.078125 C 12.597656 -15.078125 13.140625 -13.804688 13.140625 -12.265625 Z M 13.140625 -12.265625 "/></g></g><g style="fill:#ffffff;fill-opacity:1;"><g transform="translate(154.915875, 50.974619)"><path style="stroke:none" d="M 13.390625 -4.90625 C 13.390625 -4.175781 13.226562 -3.488281 12.90625 -2.84375 C 12.582031 -2.1875 12.144531 -1.648438 11.59375 -1.234375 C 10.519531 -0.410156 9.09375 0 7.3125 0 L 1.9375 0 L 1.9375 -17.546875 L 6.6875 -17.546875 C 9.25 -17.546875 10.914062 -16.753906 11.6875 -15.171875 C 11.96875 -14.609375 12.109375 -14.035156 12.109375 -13.453125 C 12.109375 -12.867188 12.066406 -12.410156 11.984375 -12.078125 C 11.878906 -11.734375 11.738281 -11.40625 11.5625 -11.09375 C 11.164062 -10.425781 10.660156 -9.953125 10.046875 -9.671875 C 11.078125 -9.398438 11.894531 -8.851562 12.5 -8.03125 C 13.09375 -7.1875 13.390625 -6.144531 13.390625 -4.90625 Z M 10.296875 -13.171875 C 10.296875 -14.941406 9.09375 -15.828125 6.6875 -15.828125 L 3.75 -15.828125 L 3.75 -10.34375 L 7.203125 -10.34375 C 8.128906 -10.34375 8.878906 -10.578125 9.453125 -11.046875 C 10.015625 -11.515625 10.296875 -12.222656 10.296875 -13.171875 Z M 11.59375 -5.234375 C 11.59375 -5.753906 11.5 -6.210938 11.3125 -6.609375 C 11.101562 -7.003906 10.84375 -7.347656 10.53125 -7.640625 C 9.84375 -8.242188 9.035156 -8.546875 8.109375 -8.546875 L 3.75 -8.546875 L 3.75 -1.734375 L 7.828125 -1.734375 C 8.921875 -1.734375 9.820312 -2.050781 10.53125 -2.6875 C 11.238281 -3.34375 11.59375 -4.191406 11.59375 -5.234375 Z M 11.59375 -5.234375 "/></g></g><g style="fill:#ffffff;fill-opacity:1;"><g transform="translate(168.82362, 50.974619)"><path style="stroke:none" d="M 19.25 -8.203125 L 19.078125 -7.125 C 18.691406 -4.988281 17.648438 -3.234375 15.953125 -1.859375 C 14.242188 -0.484375 12.328125 0.203125 10.203125 0.203125 C 8.960938 0.203125 7.789062 -0.0351562 6.6875 -0.515625 C 5.582031 -0.984375 4.625 -1.628906 3.8125 -2.453125 C 2.988281 -3.265625 2.347656 -4.21875 1.890625 -5.3125 C 1.398438 -6.414062 1.15625 -7.597656 1.15625 -8.859375 C 1.15625 -10.097656 1.398438 -11.265625 1.890625 -12.359375 C 2.347656 -13.460938 2.988281 -14.425781 3.8125 -15.25 C 4.625 -16.0625 5.582031 -16.707031 6.6875 -17.1875 C 7.789062 -17.65625 8.898438 -17.890625 10.015625 -17.890625 C 12.117188 -17.890625 13.96875 -17.296875 15.5625 -16.109375 C 17.175781 -14.921875 18.28125 -13.351562 18.875 -11.40625 L 16.953125 -11.40625 C 16.398438 -12.832031 15.515625 -13.96875 14.296875 -14.8125 C 13.054688 -15.65625 11.691406 -16.078125 10.203125 -16.078125 C 8.203125 -16.078125 6.492188 -15.375 5.078125 -13.96875 C 3.671875 -12.550781 2.96875 -10.847656 2.96875 -8.859375 C 2.96875 -6.878906 3.671875 -5.175781 5.078125 -3.75 C 6.472656 -2.3125 8.179688 -1.59375 10.203125 -1.59375 C 11.785156 -1.59375 13.226562 -2.050781 14.53125 -2.96875 C 15.820312 -3.894531 16.726562 -5.117188 17.25 -6.640625 L 10.125 -6.640625 L 10.125 -8.203125 Z M 19.25 -8.203125 "/></g></g></g></svg>