<svg xmlns="http://www.w3.org/2000/svg" xmlns:xlink="http://www.w3.org/1999/xlink" width="23" zoomAndPan="magnify" viewBox="0 0 17.25 17.249999" height="23" preserveAspectRatio="xMidYMid meet" version="1.0"><defs><clipPath id="6ca8cb73f8"><path d="M 8 0 L 16.53125 0 L 16.53125 8 L 8 8 Z M 8 0 " clip-rule="nonzero"/></clipPath><clipPath id="c4e371c284"><path d="M 0 8 L 8 8 L 8 16.53125 L 0 16.53125 Z M 0 8 " clip-rule="nonzero"/></clipPath><clipPath id="768312eefb"><path d="M 8 8 L 16.53125 8 L 16.53125 16.53125 L 8 16.53125 Z M 8 8 " clip-rule="nonzero"/></clipPath><clipPath id="8247786146"><path d="M 4.890625 5.179688 L 6.039062 5.179688 L 6.039062 6.332031 L 4.890625 6.332031 Z M 4.890625 5.179688 " clip-rule="nonzero"/></clipPath><clipPath id="ff873088b7"><path d="M 5.464844 5.179688 C 5.617188 5.179688 5.765625 5.242188 5.871094 5.347656 C 5.980469 5.457031 6.039062 5.601562 6.039062 5.753906 C 6.039062 5.90625 5.980469 6.054688 5.871094 6.160156 C 5.765625 6.269531 5.617188 6.332031 5.464844 6.332031 C 5.3125 6.332031 5.167969 6.269531 5.058594 6.160156 C 4.949219 6.054688 4.890625 5.90625 4.890625 5.753906 C 4.890625 5.601562 4.949219 5.457031 5.058594 5.347656 C 5.167969 5.242188 5.3125 5.179688 5.464844 5.179688 Z M 5.464844 5.179688 " clip-rule="nonzero"/></clipPath></defs><path fill="#bb2727" d="M 5.683594 7.65625 L 1.964844 7.65625 C 0.882812 7.65625 0 6.773438 0 5.691406 L 0 1.972656 C 0 0.890625 0.882812 0.0078125 1.964844 0.0078125 L 5.683594 0.0078125 C 6.769531 0.0078125 7.648438 0.890625 7.648438 1.972656 L 7.648438 5.691406 C 7.648438 6.773438 6.769531 7.65625 5.683594 7.65625 Z M 5.683594 7.65625 " fill-opacity="1" fill-rule="nonzero"/><g clip-path="url(#6ca8cb73f8)"><path fill="#bb2727" d="M 14.273438 7.65625 L 10.554688 7.65625 C 9.472656 7.65625 8.589844 6.773438 8.589844 5.691406 L 8.589844 1.972656 C 8.589844 0.890625 9.472656 0.0078125 10.554688 0.0078125 L 14.273438 0.0078125 C 15.355469 0.0078125 16.238281 0.890625 16.238281 1.972656 L 16.238281 5.691406 C 16.238281 6.773438 15.355469 7.65625 14.273438 7.65625 Z M 14.273438 7.65625 " fill-opacity="1" fill-rule="nonzero"/></g><g clip-path="url(#c4e371c284)"><path fill="#bb2727" d="M 5.683594 16.300781 L 1.964844 16.300781 C 0.882812 16.300781 0 15.417969 0 14.332031 L 0 10.617188 C 0 9.53125 0.882812 8.648438 1.964844 8.648438 L 5.683594 8.648438 C 6.769531 8.648438 7.648438 9.53125 7.648438 10.617188 L 7.648438 14.332031 C 7.648438 15.417969 6.769531 16.300781 5.683594 16.300781 Z M 5.683594 16.300781 " fill-opacity="1" fill-rule="nonzero"/></g><g clip-path="url(#768312eefb)"><path fill="#bb2727" d="M 14.273438 16.300781 L 10.554688 16.300781 C 9.472656 16.300781 8.589844 15.417969 8.589844 14.332031 L 8.589844 10.617188 C 8.589844 9.53125 9.472656 8.648438 10.554688 8.648438 L 14.273438 8.648438 C 15.355469 8.648438 16.238281 9.53125 16.238281 10.617188 L 16.238281 14.332031 C 16.238281 15.417969 15.355469 16.300781 14.273438 16.300781 Z M 14.273438 16.300781 " fill-opacity="1" fill-rule="nonzero"/></g><path fill="#faf1df" d="M 5 3.441406 L 4.230469 3.433594 L 4.238281 2.667969 C 4.238281 2.445312 4.0625 2.265625 3.839844 2.261719 C 3.621094 2.257812 3.4375 2.4375 3.4375 2.65625 L 3.429688 3.425781 L 2.660156 3.417969 C 2.65625 3.417969 2.65625 3.417969 2.652344 3.417969 C 2.433594 3.421875 2.257812 3.597656 2.253906 3.816406 C 2.25 4.039062 2.429688 4.21875 2.652344 4.222656 L 3.417969 4.230469 L 3.410156 4.996094 C 3.410156 5.21875 3.585938 5.402344 3.808594 5.402344 C 3.8125 5.402344 3.8125 5.402344 3.8125 5.402344 C 4.03125 5.402344 4.210938 5.226562 4.214844 5.007812 L 4.222656 4.238281 L 4.992188 4.246094 C 4.992188 4.246094 4.996094 4.246094 4.996094 4.246094 C 5.214844 4.242188 5.394531 4.066406 5.394531 3.847656 C 5.398438 3.625 5.21875 3.445312 5 3.441406 Z M 5 3.441406 " fill-opacity="1" fill-rule="nonzero"/><path fill="#faf1df" d="M 4.390625 12.476562 L 4.9375 11.933594 C 5.09375 11.777344 5.09375 11.523438 4.9375 11.367188 C 4.78125 11.210938 4.527344 11.207031 4.371094 11.363281 L 3.824219 11.90625 L 3.28125 11.363281 C 3.28125 11.363281 3.28125 11.359375 3.277344 11.359375 C 3.121094 11.207031 2.871094 11.207031 2.714844 11.363281 C 2.558594 11.519531 2.558594 11.773438 2.714844 11.929688 L 3.257812 12.472656 L 2.714844 13.015625 C 2.554688 13.171875 2.554688 13.425781 2.710938 13.582031 C 2.714844 13.585938 2.714844 13.585938 2.714844 13.585938 C 2.871094 13.738281 3.125 13.738281 3.277344 13.585938 L 3.824219 13.042969 L 4.367188 13.585938 C 4.367188 13.585938 4.371094 13.589844 4.371094 13.589844 C 4.527344 13.742188 4.777344 13.742188 4.933594 13.585938 C 5.089844 13.429688 5.089844 13.175781 4.933594 13.019531 Z M 4.390625 12.476562 " fill-opacity="1" fill-rule="nonzero"/><path fill="#faf1df" d="M 13.472656 4.230469 C 13.46875 4.230469 13.46875 4.230469 13.464844 4.230469 L 11.125 4.226562 C 10.90625 4.226562 10.726562 4.046875 10.726562 3.824219 C 10.726562 3.605469 10.902344 3.429688 11.121094 3.425781 C 11.125 3.425781 11.125 3.425781 11.128906 3.425781 L 13.46875 3.429688 C 13.6875 3.429688 13.867188 3.609375 13.867188 3.832031 C 13.867188 4.050781 13.691406 4.226562 13.472656 4.230469 Z M 13.472656 4.230469 " fill-opacity="1" fill-rule="nonzero"/><path fill="#faf1df" d="M 13.476562 12.824219 C 13.472656 12.824219 13.472656 12.824219 13.46875 12.824219 L 11.359375 12.816406 C 11.160156 12.816406 10.996094 12.636719 10.996094 12.414062 C 10.996094 12.195312 11.15625 12.019531 11.351562 12.015625 C 11.355469 12.015625 11.355469 12.015625 11.359375 12.015625 L 13.46875 12.023438 C 13.671875 12.023438 13.832031 12.203125 13.832031 12.425781 C 13.832031 12.644531 13.671875 12.820312 13.476562 12.824219 Z M 13.476562 12.824219 " fill-opacity="1" fill-rule="nonzero"/><path fill="#faf1df" d="M 12.964844 11.191406 C 12.964844 11.34375 12.910156 11.476562 12.804688 11.582031 C 12.695312 11.691406 12.566406 11.742188 12.414062 11.742188 C 12.261719 11.742188 12.132812 11.691406 12.023438 11.582031 C 11.917969 11.476562 11.863281 11.34375 11.863281 11.191406 C 11.863281 11.042969 11.917969 10.910156 12.023438 10.804688 C 12.132812 10.695312 12.261719 10.644531 12.414062 10.644531 C 12.566406 10.644531 12.695312 10.695312 12.804688 10.804688 C 12.910156 10.910156 12.964844 11.042969 12.964844 11.191406 Z M 12.964844 11.191406 " fill-opacity="1" fill-rule="nonzero"/><path fill="#faf1df" d="M 12.964844 13.757812 C 12.964844 13.90625 12.910156 14.039062 12.804688 14.144531 C 12.695312 14.253906 12.566406 14.304688 12.414062 14.304688 C 12.261719 14.304688 12.132812 14.253906 12.023438 14.144531 C 11.917969 14.039062 11.863281 13.90625 11.863281 13.757812 C 11.863281 13.605469 11.917969 13.472656 12.023438 13.367188 C 12.132812 13.257812 12.261719 13.207031 12.414062 13.207031 C 12.566406 13.207031 12.695312 13.257812 12.804688 13.367188 C 12.910156 13.472656 12.964844 13.605469 12.964844 13.757812 Z M 12.964844 13.757812 " fill-opacity="1" fill-rule="nonzero"/><g clip-path="url(#8247786146)"><g clip-path="url(#ff873088b7)"><path fill="#bb2727" d="M 4.890625 5.179688 L 6.039062 5.179688 L 6.039062 6.332031 L 4.890625 6.332031 Z M 4.890625 5.179688 " fill-opacity="1" fill-rule="nonzero"/></g></g></svg>