<svg xmlns="http://www.w3.org/2000/svg" xmlns:xlink="http://www.w3.org/1999/xlink" width="24" zoomAndPan="magnify" viewBox="0 0 18 17.25" height="23" preserveAspectRatio="xMidYMid meet" version="1.0"><defs><clipPath id="19f0ba8918"><path d="M 2 2 L 16 2 L 16 16.53125 L 2 16.53125 Z M 2 2 " clip-rule="nonzero"/></clipPath><clipPath id="a486dc5d30"><path d="M 0.375 0 L 17.625 0 L 17.625 9 L 0.375 9 Z M 0.375 0 " clip-rule="nonzero"/></clipPath><clipPath id="d90914cdda"><path d="M 6.839844 6.332031 L 11.152344 6.332031 L 11.152344 10.445312 L 6.839844 10.445312 Z M 6.839844 6.332031 " clip-rule="nonzero"/></clipPath><clipPath id="c7a46b5eca"><path d="M 8.898438 6.332031 L 9.085938 6.332031 C 10.222656 6.332031 11.144531 7.25 11.144531 8.386719 C 11.144531 9.523438 10.222656 10.445312 9.085938 10.445312 L 8.898438 10.445312 C 7.761719 10.445312 6.839844 9.523438 6.839844 8.386719 C 6.839844 7.25 7.761719 6.332031 8.898438 6.332031 Z M 8.898438 6.332031 " clip-rule="nonzero"/></clipPath></defs><g clip-path="url(#19f0ba8918)"><path fill="#bb2727" d="M 15.035156 8.289062 Z M 15.035156 8.289062 L 8.992188 2.933594 L 2.941406 8.292969 L 2.941406 15.945312 C 2.941406 16.144531 3.101562 16.300781 3.296875 16.300781 L 7.078125 16.300781 L 7.078125 12.945312 C 7.078125 12.746094 7.238281 12.589844 7.433594 12.589844 L 10.542969 12.589844 C 10.738281 12.589844 10.898438 12.746094 10.898438 12.945312 L 10.898438 16.300781 L 14.679688 16.300781 C 14.878906 16.300781 15.035156 16.144531 15.035156 15.945312 Z M 2.941406 8.292969 Z M 2.941406 8.292969 " fill-opacity="1" fill-rule="nonzero"/></g><g clip-path="url(#a486dc5d30)"><path fill="#bb2727" d="M 8.957031 0.00390625 L 0.375 7.601562 L 1.277344 8.621094 L 8.992188 1.792969 L 16.699219 8.621094 L 17.601562 7.601562 L 9.023438 0.00390625 L 8.992188 0.0429688 Z M 8.957031 0.00390625 " fill-opacity="1" fill-rule="nonzero"/></g><path fill="#bb2727" d="M 2.941406 1.097656 L 5.117188 1.097656 L 5.097656 2.386719 L 2.941406 4.332031 Z M 2.941406 1.097656 " fill-opacity="1" fill-rule="nonzero"/><g clip-path="url(#d90914cdda)"><g clip-path="url(#c7a46b5eca)"><path fill="#bb2727" d="M 6.839844 6.332031 L 11.152344 6.332031 L 11.152344 10.445312 L 6.839844 10.445312 Z M 6.839844 6.332031 " fill-opacity="1" fill-rule="nonzero"/></g></g></svg>