<svg xmlns="http://www.w3.org/2000/svg" xmlns:xlink="http://www.w3.org/1999/xlink" width="24" zoomAndPan="magnify" viewBox="0 0 18 17.25" height="23" preserveAspectRatio="xMidYMid meet" version="1.2"><defs><clipPath id="8ee61c8857"><path d="M 2 2 L 16 2 L 16 16.53125 L 2 16.53125 Z M 2 2 "/></clipPath><clipPath id="3dc84e9cad"><path d="M 0.375 0 L 17.625 0 L 17.625 9 L 0.375 9 Z M 0.375 0 "/></clipPath><clipPath id="526fe77aa5"><path d="M 6.675781 5.210938 L 11.320312 5.210938 L 11.320312 9.148438 L 6.675781 9.148438 Z M 6.675781 5.210938 "/></clipPath><clipPath id="12f8c7e186"><path d="M 8.644531 5.210938 L 9.339844 5.210938 C 9.863281 5.210938 10.363281 5.421875 10.734375 5.789062 C 11.101562 6.15625 11.308594 6.660156 11.308594 7.179688 C 11.308594 7.703125 11.101562 8.203125 10.734375 8.570312 C 10.363281 8.941406 9.863281 9.148438 9.339844 9.148438 L 8.644531 9.148438 C 8.125 9.148438 7.621094 8.941406 7.253906 8.570312 C 6.882812 8.203125 6.675781 7.703125 6.675781 7.179688 C 6.675781 6.660156 6.882812 6.15625 7.253906 5.789062 C 7.621094 5.421875 8.125 5.210938 8.644531 5.210938 Z M 8.644531 5.210938 "/></clipPath></defs><g id="e3614e1979"><g clip-rule="nonzero" clip-path="url(#8ee61c8857)"><path style=" stroke:none;fill-rule:nonzero;fill:#004e92;fill-opacity:1;" d="M 15.035156 8.289062 Z M 15.035156 8.289062 L 8.992188 2.933594 L 2.941406 8.292969 L 2.941406 15.945312 C 2.941406 16.144531 3.101562 16.300781 3.296875 16.300781 L 7.078125 16.300781 L 7.078125 12.945312 C 7.078125 12.746094 7.238281 12.589844 7.433594 12.589844 L 10.542969 12.589844 C 10.738281 12.589844 10.898438 12.746094 10.898438 12.945312 L 10.898438 16.300781 L 14.679688 16.300781 C 14.878906 16.300781 15.035156 16.144531 15.035156 15.945312 Z M 2.941406 8.292969 Z M 2.941406 8.292969 "/></g><g clip-rule="nonzero" clip-path="url(#3dc84e9cad)"><path style=" stroke:none;fill-rule:nonzero;fill:#004e92;fill-opacity:1;" d="M 8.957031 0.00390625 L 0.375 7.601562 L 1.277344 8.621094 L 8.992188 1.792969 L 16.699219 8.621094 L 17.601562 7.601562 L 9.023438 0.00390625 L 8.992188 0.0429688 Z M 8.957031 0.00390625 "/></g><path style=" stroke:none;fill-rule:nonzero;fill:#004e92;fill-opacity:1;" d="M 2.941406 1.097656 L 5.117188 1.097656 L 5.097656 2.386719 L 2.941406 4.332031 Z M 2.941406 1.097656 "/><g clip-rule="nonzero" clip-path="url(#526fe77aa5)"><g clip-rule="nonzero" clip-path="url(#12f8c7e186)"><path style=" stroke:none;fill-rule:nonzero;fill:#004e92;fill-opacity:1;" d="M 6.675781 5.210938 L 11.304688 5.210938 L 11.304688 9.148438 L 6.675781 9.148438 Z M 6.675781 5.210938 "/></g></g></g></svg>