<svg xmlns="http://www.w3.org/2000/svg" xmlns:xlink="http://www.w3.org/1999/xlink" width="23" zoomAndPan="magnify" viewBox="0 0 17.25 17.249999" height="23" preserveAspectRatio="xMidYMid meet" version="1.2"><defs><clipPath id="558665b5f9"><path d="M 0 0 L 16.53125 0 L 16.53125 16.53125 L 0 16.53125 Z M 0 0 "/></clipPath><clipPath id="2d13c3dff9"><path d="M 8.15625 2.824219 L 11.75 2.824219 L 11.75 6.417969 L 8.15625 6.417969 Z M 8.15625 2.824219 "/></clipPath><clipPath id="63566b8fb9"><path d="M 9.953125 2.824219 C 10.429688 2.824219 10.886719 3.011719 11.222656 3.351562 C 11.558594 3.6875 11.75 4.144531 11.75 4.621094 C 11.75 5.097656 11.558594 5.554688 11.222656 5.890625 C 10.886719 6.226562 10.429688 6.417969 9.953125 6.417969 C 9.476562 6.417969 9.019531 6.226562 8.679688 5.890625 C 8.34375 5.554688 8.15625 5.097656 8.15625 4.621094 C 8.15625 4.144531 8.34375 3.6875 8.679688 3.351562 C 9.019531 3.011719 9.476562 2.824219 9.953125 2.824219 Z M 9.953125 2.824219 "/></clipPath></defs><g id="e2603327d2"><g clip-rule="nonzero" clip-path="url(#558665b5f9)"><path style=" stroke:none;fill-rule:nonzero;fill:#004e92;fill-opacity:1;" d="M 8.152344 0 C 3.648438 0 0 3.648438 0 8.152344 C 0 12.65625 3.648438 16.304688 8.152344 16.304688 C 12.65625 16.304688 16.304688 12.65625 16.304688 8.152344 C 16.304688 3.648438 12.65625 0 8.152344 0 Z M 12.375 11.292969 C 12.375 11.566406 12.257812 11.828125 12.058594 12.015625 C 11.855469 12.199219 11.582031 12.292969 11.308594 12.265625 C 10.367188 12.179688 9.457031 11.929688 8.605469 11.527344 C 7.777344 11.132812 7.03125 10.601562 6.378906 9.953125 C 5.730469 9.304688 5.199219 8.554688 4.808594 7.726562 C 4.402344 6.875 4.152344 5.96875 4.066406 5.027344 C 4.0625 4.996094 4.0625 4.96875 4.0625 4.9375 C 4.0625 4.691406 4.15625 4.457031 4.316406 4.277344 C 4.503906 4.074219 4.765625 3.957031 5.039062 3.957031 L 6.351562 3.957031 C 6.847656 3.957031 7.261719 4.328125 7.320312 4.820312 C 7.351562 5.109375 7.410156 5.398438 7.496094 5.675781 C 7.601562 6.023438 7.507812 6.398438 7.253906 6.652344 L 6.722656 7.183594 C 7.277344 8.203125 8.128906 9.050781 9.144531 9.609375 L 9.675781 9.078125 C 9.929688 8.820312 10.304688 8.726562 10.65625 8.835938 C 10.933594 8.917969 11.21875 8.976562 11.507812 9.011719 C 12 9.066406 12.375 9.484375 12.375 9.980469 Z M 12.375 11.292969 "/></g><g clip-rule="nonzero" clip-path="url(#2d13c3dff9)"><g clip-rule="nonzero" clip-path="url(#63566b8fb9)"><path style=" stroke:none;fill-rule:nonzero;fill:#004e92;fill-opacity:1;" d="M 8.15625 2.824219 L 11.75 2.824219 L 11.75 6.417969 L 8.15625 6.417969 Z M 8.15625 2.824219 "/></g></g></g></svg>