<svg xmlns="http://www.w3.org/2000/svg" xmlns:xlink="http://www.w3.org/1999/xlink" width="23" zoomAndPan="magnify" viewBox="0 0 17.25 17.249999" height="23" preserveAspectRatio="xMidYMid meet" version="1.0"><defs><clipPath id="d744e91016"><path d="M 0 0 L 16.53125 0 L 16.53125 16.53125 L 0 16.53125 Z M 0 0 " clip-rule="nonzero"/></clipPath><clipPath id="a0084151c5"><path d="M 8.15625 3.484375 L 11.75 3.484375 L 11.75 7.109375 L 8.15625 7.109375 Z M 8.15625 3.484375 " clip-rule="nonzero"/></clipPath><clipPath id="91728980e8"><path d="M 9.953125 3.484375 C 10.429688 3.484375 10.886719 3.675781 11.222656 4.011719 C 11.558594 4.347656 11.75 4.804688 11.75 5.28125 L 11.75 5.296875 C 11.75 5.773438 11.558594 6.230469 11.222656 6.570312 C 10.886719 6.90625 10.429688 7.09375 9.953125 7.09375 C 9.476562 7.09375 9.019531 6.90625 8.679688 6.570312 C 8.34375 6.230469 8.15625 5.773438 8.15625 5.296875 L 8.15625 5.28125 C 8.15625 4.804688 8.34375 4.347656 8.679688 4.011719 C 9.019531 3.675781 9.476562 3.484375 9.953125 3.484375 Z M 9.953125 3.484375 " clip-rule="nonzero"/></clipPath></defs><g clip-path="url(#d744e91016)"><path fill="#bb2727" d="M 8.152344 0 C 3.648438 0 0 3.648438 0 8.152344 C 0 12.65625 3.648438 16.304688 8.152344 16.304688 C 12.65625 16.304688 16.304688 12.65625 16.304688 8.152344 C 16.304688 3.648438 12.65625 0 8.152344 0 Z M 12.375 11.292969 C 12.375 11.566406 12.257812 11.828125 12.058594 12.015625 C 11.855469 12.199219 11.582031 12.292969 11.308594 12.265625 C 10.367188 12.179688 9.457031 11.929688 8.605469 11.527344 C 7.777344 11.132812 7.03125 10.601562 6.378906 9.953125 C 5.730469 9.304688 5.199219 8.554688 4.808594 7.726562 C 4.402344 6.875 4.152344 5.96875 4.066406 5.027344 C 4.0625 4.996094 4.0625 4.96875 4.0625 4.9375 C 4.0625 4.691406 4.15625 4.457031 4.316406 4.277344 C 4.503906 4.074219 4.765625 3.957031 5.039062 3.957031 L 6.351562 3.957031 C 6.847656 3.957031 7.261719 4.328125 7.320312 4.820312 C 7.351562 5.109375 7.410156 5.398438 7.496094 5.675781 C 7.601562 6.023438 7.507812 6.398438 7.253906 6.652344 L 6.722656 7.183594 C 7.277344 8.203125 8.128906 9.050781 9.144531 9.609375 L 9.675781 9.078125 C 9.929688 8.820312 10.304688 8.726562 10.65625 8.835938 C 10.933594 8.917969 11.21875 8.976562 11.507812 9.011719 C 12 9.066406 12.375 9.484375 12.375 9.980469 Z M 12.375 11.292969 " fill-opacity="1" fill-rule="nonzero"/></g><g clip-path="url(#a0084151c5)"><g clip-path="url(#91728980e8)"><path fill="#bb2727" d="M 8.15625 3.484375 L 11.75 3.484375 L 11.75 7.09375 L 8.15625 7.09375 Z M 8.15625 3.484375 " fill-opacity="1" fill-rule="nonzero"/></g></g></svg>