<svg xmlns="http://www.w3.org/2000/svg" xmlns:xlink="http://www.w3.org/1999/xlink" width="310" zoomAndPan="magnify" viewBox="0 0 232.5 60" height="80" preserveAspectRatio="xMidYMid meet" version="1.0"><defs><g/><clipPath id="13eaabdac6"><path d="M 0 10.976562 L 20 10.976562 L 20 31 L 0 31 Z M 0 10.976562 " clip-rule="nonzero"/></clipPath><clipPath id="e69a79654c"><path d="M 21 10.976562 L 41.320312 10.976562 L 41.320312 31 L 21 31 Z M 21 10.976562 " clip-rule="nonzero"/></clipPath><clipPath id="f24b3a19c0"><path d="M 0 32 L 20 32 L 20 52.296875 L 0 52.296875 Z M 0 32 " clip-rule="nonzero"/></clipPath><clipPath id="8d9f43e04c"><path d="M 21 32 L 41.320312 32 L 41.320312 52.296875 L 21 52.296875 Z M 21 32 " clip-rule="nonzero"/></clipPath></defs><g clip-path="url(#13eaabdac6)"><path fill="#ed2828" d="M 14.425781 30.402344 L 4.988281 30.402344 C 2.238281 30.402344 0 28.164062 0 25.414062 L 0 15.976562 C 0 13.222656 2.238281 10.984375 4.988281 10.984375 L 14.425781 10.984375 C 17.179688 10.984375 19.417969 13.222656 19.417969 15.976562 L 19.417969 25.414062 C 19.417969 28.164062 17.179688 30.402344 14.425781 30.402344 Z M 14.425781 30.402344 " fill-opacity="1" fill-rule="nonzero"/></g><g clip-path="url(#e69a79654c)"><path fill="#ed2828" d="M 36.230469 30.402344 L 26.792969 30.402344 C 24.039062 30.402344 21.800781 28.164062 21.800781 25.414062 L 21.800781 15.976562 C 21.800781 13.222656 24.039062 10.984375 26.792969 10.984375 L 36.230469 10.984375 C 38.980469 10.984375 41.21875 13.222656 41.21875 15.976562 L 41.21875 25.414062 C 41.21875 28.164062 38.980469 30.402344 36.230469 30.402344 Z M 36.230469 30.402344 " fill-opacity="1" fill-rule="nonzero"/></g><g clip-path="url(#f24b3a19c0)"><path fill="#ed2828" d="M 14.425781 52.339844 L 4.988281 52.339844 C 2.238281 52.339844 0 50.101562 0 47.347656 L 0 37.914062 C 0 35.160156 2.238281 32.921875 4.988281 32.921875 L 14.425781 32.921875 C 17.179688 32.921875 19.417969 35.160156 19.417969 37.914062 L 19.417969 47.347656 C 19.417969 50.101562 17.179688 52.339844 14.425781 52.339844 Z M 14.425781 52.339844 " fill-opacity="1" fill-rule="nonzero"/></g><g clip-path="url(#8d9f43e04c)"><path fill="#ed2828" d="M 36.230469 52.339844 L 26.792969 52.339844 C 24.039062 52.339844 21.800781 50.101562 21.800781 47.347656 L 21.800781 37.914062 C 21.800781 35.160156 24.039062 32.921875 26.792969 32.921875 L 36.230469 32.921875 C 38.980469 32.921875 41.21875 35.160156 41.21875 37.914062 L 41.21875 47.347656 C 41.21875 50.101562 38.980469 52.339844 36.230469 52.339844 Z M 36.230469 52.339844 " fill-opacity="1" fill-rule="nonzero"/></g><path fill="#faf1df" d="M 12.6875 19.707031 L 10.734375 19.6875 L 10.753906 17.734375 C 10.761719 17.175781 10.3125 16.714844 9.75 16.707031 C 9.1875 16.703125 8.726562 17.152344 8.722656 17.714844 L 8.703125 19.667969 L 6.75 19.648438 C 6.746094 19.648438 6.738281 19.648438 6.734375 19.648438 C 6.179688 19.648438 5.726562 20.097656 5.722656 20.652344 C 5.714844 21.214844 6.167969 21.675781 6.726562 21.679688 L 8.679688 21.703125 L 8.660156 23.652344 C 8.65625 24.214844 9.105469 24.675781 9.667969 24.679688 C 9.671875 24.679688 9.675781 24.679688 9.683594 24.679688 C 10.238281 24.679688 10.6875 24.230469 10.695312 23.675781 L 10.714844 21.722656 L 12.667969 21.742188 C 12.671875 21.742188 12.675781 21.742188 12.679688 21.742188 C 13.238281 21.738281 13.6875 21.292969 13.695312 20.734375 C 13.699219 20.171875 13.25 19.714844 12.6875 19.707031 Z M 12.6875 19.707031 " fill-opacity="1" fill-rule="nonzero"/><path fill="#faf1df" d="M 11.148438 42.632812 L 12.53125 41.253906 C 12.929688 40.859375 12.929688 40.214844 12.53125 39.816406 C 12.136719 39.417969 11.492188 39.417969 11.09375 39.816406 L 9.710938 41.191406 L 8.332031 39.808594 C 8.328125 39.804688 8.328125 39.804688 8.324219 39.800781 C 7.925781 39.410156 7.289062 39.414062 6.894531 39.808594 C 6.496094 40.203125 6.496094 40.847656 6.890625 41.246094 L 8.269531 42.628906 L 6.886719 44.007812 C 6.488281 44.402344 6.488281 45.046875 6.882812 45.445312 C 6.886719 45.449219 6.890625 45.453125 6.894531 45.457031 C 7.292969 45.84375 7.929688 45.839844 8.324219 45.449219 L 9.707031 44.070312 L 11.082031 45.453125 C 11.085938 45.457031 11.089844 45.460938 11.09375 45.460938 C 11.492188 45.851562 12.128906 45.847656 12.523438 45.453125 C 12.921875 45.058594 12.921875 44.414062 12.523438 44.015625 Z M 11.148438 42.632812 " fill-opacity="1" fill-rule="nonzero"/><path fill="#faf1df" d="M 34.195312 21.707031 C 34.1875 21.707031 34.183594 21.707031 34.179688 21.707031 L 28.242188 21.695312 C 27.679688 21.695312 27.226562 21.238281 27.226562 20.679688 C 27.226562 20.121094 27.675781 19.667969 28.230469 19.664062 C 28.234375 19.664062 28.238281 19.664062 28.246094 19.664062 L 34.183594 19.671875 C 34.746094 19.671875 35.199219 20.128906 35.199219 20.691406 C 35.199219 21.25 34.75 21.699219 34.195312 21.707031 Z M 34.195312 21.707031 " fill-opacity="1" fill-rule="nonzero"/><path fill="#faf1df" d="M 34.203125 43.519531 C 34.199219 43.519531 34.195312 43.519531 34.191406 43.519531 L 28.828125 43.5 C 28.324219 43.5 27.910156 43.042969 27.910156 42.480469 C 27.910156 41.925781 28.316406 41.472656 28.816406 41.46875 C 28.820312 41.46875 28.824219 41.46875 28.832031 41.46875 L 34.191406 41.484375 C 34.699219 41.484375 35.109375 41.941406 35.109375 42.503906 C 35.109375 43.0625 34.703125 43.511719 34.203125 43.519531 Z M 34.203125 43.519531 " fill-opacity="1" fill-rule="nonzero"/><path fill="#faf1df" d="M 32.90625 39.378906 C 32.90625 39.5625 32.871094 39.742188 32.800781 39.914062 C 32.730469 40.082031 32.628906 40.234375 32.496094 40.367188 C 32.367188 40.496094 32.214844 40.597656 32.042969 40.667969 C 31.875 40.738281 31.695312 40.773438 31.511719 40.773438 C 31.324219 40.773438 31.148438 40.738281 30.976562 40.667969 C 30.804688 40.597656 30.652344 40.496094 30.523438 40.367188 C 30.390625 40.234375 30.289062 40.082031 30.21875 39.914062 C 30.148438 39.742188 30.113281 39.5625 30.113281 39.378906 C 30.113281 39.191406 30.148438 39.015625 30.21875 38.84375 C 30.289062 38.671875 30.390625 38.523438 30.523438 38.390625 C 30.652344 38.261719 30.804688 38.160156 30.976562 38.089844 C 31.148438 38.015625 31.324219 37.980469 31.511719 37.980469 C 31.695312 37.980469 31.875 38.015625 32.042969 38.089844 C 32.214844 38.160156 32.367188 38.261719 32.496094 38.390625 C 32.628906 38.523438 32.730469 38.671875 32.800781 38.84375 C 32.871094 39.015625 32.90625 39.191406 32.90625 39.378906 Z M 32.90625 39.378906 " fill-opacity="1" fill-rule="nonzero"/><path fill="#faf1df" d="M 32.90625 45.882812 C 32.90625 46.070312 32.871094 46.246094 32.800781 46.417969 C 32.730469 46.589844 32.628906 46.742188 32.496094 46.871094 C 32.367188 47.003906 32.214844 47.101562 32.042969 47.175781 C 31.875 47.246094 31.695312 47.28125 31.511719 47.28125 C 31.324219 47.28125 31.148438 47.246094 30.976562 47.175781 C 30.804688 47.101562 30.652344 47.003906 30.523438 46.871094 C 30.390625 46.742188 30.289062 46.589844 30.21875 46.417969 C 30.148438 46.246094 30.113281 46.070312 30.113281 45.882812 C 30.113281 45.699219 30.148438 45.519531 30.21875 45.347656 C 30.289062 45.179688 30.390625 45.027344 30.523438 44.894531 C 30.652344 44.765625 30.804688 44.664062 30.976562 44.59375 C 31.148438 44.523438 31.324219 44.488281 31.511719 44.488281 C 31.695312 44.488281 31.875 44.523438 32.042969 44.59375 C 32.214844 44.664062 32.367188 44.765625 32.496094 44.894531 C 32.628906 45.027344 32.730469 45.179688 32.800781 45.347656 C 32.871094 45.519531 32.90625 45.699219 32.90625 45.882812 Z M 32.90625 45.882812 " fill-opacity="1" fill-rule="nonzero"/><g fill="#000000" fill-opacity="0.4"><g transform="translate(50.812261, 35.756531)"><g><path d="M 4.234375 0.328125 C 7.703125 0.328125 11.40625 -1.890625 12.296875 -6.109375 C 12.875 -8.859375 11.953125 -11.171875 9.640625 -12.234375 C 8.359375 -13.015625 6.78125 -13.078125 6.453125 -13.078125 C 4.953125 -13.078125 3.65625 -13.9375 4.046875 -15.703125 C 4.53125 -17.890625 6.421875 -19.046875 8.359375 -19.046875 C 9.890625 -19.046875 11.046875 -18.34375 10.703125 -16.484375 L 14.390625 -16.21875 C 15.125 -20.046875 12.5625 -22.8125 8.515625 -22.8125 C 5.046875 -22.8125 1.28125 -20.328125 0.390625 -16.15625 C -0.1875 -13.390625 0.796875 -11.34375 3.078125 -10.28125 C 4.40625 -9.515625 5.96875 -9.4375 6.328125 -9.4375 C 7.640625 -9.375 9.03125 -8.359375 8.671875 -6.546875 C 8.25 -4.6875 6.296875 -3.4375 4.40625 -3.4375 C 2.890625 -3.4375 1.671875 -4.234375 2.03125 -6.109375 L -1.703125 -6.359375 C -2.53125 -2.15625 0.21875 0.21875 4.234375 0.328125 Z M 4.234375 0.328125 "/></g></g></g><g fill="#000000" fill-opacity="0.4"><g transform="translate(68.254685, 35.756531)"><g><path d="M 6.046875 -3.4375 L 3.40625 -3.4375 L 6.71875 -19.046875 L 9.21875 -19.046875 L 9.953125 -22.484375 L 1.1875 -22.484375 L 0.453125 -19.046875 L 2.953125 -19.046875 L -0.359375 -3.4375 L -2.984375 -3.4375 L -3.71875 0 L 5.296875 0 Z M 6.046875 -3.4375 "/></g></g></g><g fill="#000000" fill-opacity="0.4"><g transform="translate(79.4975, 35.756531)"><g><path d="M 10.1875 -22.484375 L 2.53125 -22.484375 L 1.796875 -18.734375 L 4.171875 -13.109375 L 0.546875 -13.109375 L -2.25 0 L 1.515625 0 L 3.5 -9.375 L 7.390625 -9.375 C 7.390625 -9.375 14.6875 -9.25 16.0625 -15.703125 C 17.46875 -22.359375 10.1875 -22.484375 10.1875 -22.484375 Z M 8.359375 -13.140625 L 6.140625 -18.734375 L 9.375 -18.734375 C 9.375 -18.734375 13.015625 -18.859375 12.4375 -16.15625 C 11.953125 -13.875 9.375 -13.265625 8.359375 -13.140625 Z M 8.359375 -13.140625 "/></g></g></g><g fill="#000000" fill-opacity="0.4"><g transform="translate(98.224812, 35.756531)"><g><path d="M 13.65625 -13.109375 L 4.3125 -13.109375 L 5.5 -18.734375 L 16.734375 -18.734375 L 17.546875 -22.484375 L 2.53125 -22.484375 L -2.25 0 L 12.75 0 L 13.5625 -3.765625 L 2.3125 -3.765625 L 3.5 -9.375 L 12.84375 -9.375 Z M 13.65625 -13.109375 "/></g></g></g><g fill="#000000" fill-opacity="0.4"><g transform="translate(117.112738, 35.756531)"><g><path d="M 3.53125 -9.375 L 5.75 -9.375 L 9.609375 0 L 13.875 0 L 10.015625 -9.734375 C 12.40625 -10.34375 15.296875 -11.828125 16.125 -15.703125 C 17.546875 -22.359375 10.21875 -22.484375 10.21875 -22.484375 L 2.5625 -22.484375 L 1.828125 -18.734375 L 4.203125 -13.109375 L 0.578125 -13.109375 L -2.21875 0 L 1.546875 0 Z M 8.390625 -13.140625 L 6.171875 -18.734375 L 9.40625 -18.734375 C 9.40625 -18.734375 13.046875 -18.859375 12.46875 -16.15625 C 11.984375 -13.84375 9.40625 -13.234375 8.390625 -13.140625 Z M 8.390625 -13.140625 "/></g></g></g><g fill="#000000" fill-opacity="0.4"><g transform="translate(136.771604, 35.756531)"><g><path d="M 6.046875 -3.4375 L 3.40625 -3.4375 L 6.71875 -19.046875 L 9.21875 -19.046875 L 9.953125 -22.484375 L 1.1875 -22.484375 L 0.453125 -19.046875 L 2.953125 -19.046875 L -0.359375 -3.4375 L -2.984375 -3.4375 L -3.71875 0 L 5.296875 0 Z M 6.046875 -3.4375 "/></g></g></g><g fill="#000000" fill-opacity="0.4"><g transform="translate(148.014414, 35.756531)"><g><path d="M -0.703125 -13.015625 L -1.40625 -9.609375 L 9.890625 -9.609375 L 10.59375 -13.015625 Z M -0.703125 -13.015625 "/></g></g></g><g fill="#000000" fill-opacity="1"><g transform="translate(49.392364, 34.336636)"><g><path d="M 4.234375 0.328125 C 7.703125 0.328125 11.40625 -1.890625 12.296875 -6.109375 C 12.875 -8.859375 11.953125 -11.171875 9.640625 -12.234375 C 8.359375 -13.015625 6.78125 -13.078125 6.453125 -13.078125 C 4.953125 -13.078125 3.65625 -13.9375 4.046875 -15.703125 C 4.53125 -17.890625 6.421875 -19.046875 8.359375 -19.046875 C 9.890625 -19.046875 11.046875 -18.34375 10.703125 -16.484375 L 14.390625 -16.21875 C 15.125 -20.046875 12.5625 -22.8125 8.515625 -22.8125 C 5.046875 -22.8125 1.28125 -20.328125 0.390625 -16.15625 C -0.1875 -13.390625 0.796875 -11.34375 3.078125 -10.28125 C 4.40625 -9.515625 5.96875 -9.4375 6.328125 -9.4375 C 7.640625 -9.375 9.03125 -8.359375 8.671875 -6.546875 C 8.25 -4.6875 6.296875 -3.4375 4.40625 -3.4375 C 2.890625 -3.4375 1.671875 -4.234375 2.03125 -6.109375 L -1.703125 -6.359375 C -2.53125 -2.15625 0.21875 0.21875 4.234375 0.328125 Z M 4.234375 0.328125 "/></g></g></g><g fill="#000000" fill-opacity="1"><g transform="translate(66.834788, 34.336636)"><g><path d="M 6.046875 -3.4375 L 3.40625 -3.4375 L 6.71875 -19.046875 L 9.21875 -19.046875 L 9.953125 -22.484375 L 1.1875 -22.484375 L 0.453125 -19.046875 L 2.953125 -19.046875 L -0.359375 -3.4375 L -2.984375 -3.4375 L -3.71875 0 L 5.296875 0 Z M 6.046875 -3.4375 "/></g></g></g><g fill="#000000" fill-opacity="1"><g transform="translate(78.077603, 34.336636)"><g><path d="M 10.1875 -22.484375 L 2.53125 -22.484375 L 1.796875 -18.734375 L 4.171875 -13.109375 L 0.546875 -13.109375 L -2.25 0 L 1.515625 0 L 3.5 -9.375 L 7.390625 -9.375 C 7.390625 -9.375 14.6875 -9.25 16.0625 -15.703125 C 17.46875 -22.359375 10.1875 -22.484375 10.1875 -22.484375 Z M 8.359375 -13.140625 L 6.140625 -18.734375 L 9.375 -18.734375 C 9.375 -18.734375 13.015625 -18.859375 12.4375 -16.15625 C 11.953125 -13.875 9.375 -13.265625 8.359375 -13.140625 Z M 8.359375 -13.140625 "/></g></g></g><g fill="#000000" fill-opacity="1"><g transform="translate(96.804916, 34.336636)"><g><path d="M 13.65625 -13.109375 L 4.3125 -13.109375 L 5.5 -18.734375 L 16.734375 -18.734375 L 17.546875 -22.484375 L 2.53125 -22.484375 L -2.25 0 L 12.75 0 L 13.5625 -3.765625 L 2.3125 -3.765625 L 3.5 -9.375 L 12.84375 -9.375 Z M 13.65625 -13.109375 "/></g></g></g><g fill="#000000" fill-opacity="1"><g transform="translate(115.692841, 34.336636)"><g><path d="M 3.53125 -9.375 L 5.75 -9.375 L 9.609375 0 L 13.875 0 L 10.015625 -9.734375 C 12.40625 -10.34375 15.296875 -11.828125 16.125 -15.703125 C 17.546875 -22.359375 10.21875 -22.484375 10.21875 -22.484375 L 2.5625 -22.484375 L 1.828125 -18.734375 L 4.203125 -13.109375 L 0.578125 -13.109375 L -2.21875 0 L 1.546875 0 Z M 8.390625 -13.140625 L 6.171875 -18.734375 L 9.40625 -18.734375 C 9.40625 -18.734375 13.046875 -18.859375 12.46875 -16.15625 C 11.984375 -13.84375 9.40625 -13.234375 8.390625 -13.140625 Z M 8.390625 -13.140625 "/></g></g></g><g fill="#000000" fill-opacity="1"><g transform="translate(135.351707, 34.336636)"><g><path d="M 6.046875 -3.4375 L 3.40625 -3.4375 L 6.71875 -19.046875 L 9.21875 -19.046875 L 9.953125 -22.484375 L 1.1875 -22.484375 L 0.453125 -19.046875 L 2.953125 -19.046875 L -0.359375 -3.4375 L -2.984375 -3.4375 L -3.71875 0 L 5.296875 0 Z M 6.046875 -3.4375 "/></g></g></g><g fill="#000000" fill-opacity="1"><g transform="translate(146.594517, 34.336636)"><g><path d="M -0.703125 -13.015625 L -1.40625 -9.609375 L 9.890625 -9.609375 L 10.59375 -13.015625 Z M -0.703125 -13.015625 "/></g></g></g><g fill="#000000" fill-opacity="0.4"><g transform="translate(162.247582, 35.756531)"><g><path d="M -0.703125 0 L 0.796875 -2.609375 L 8.734375 -2.609375 L 9.1875 0 L 13.109375 0 L 9 -23.125 L -4.84375 0 Z M 7.203125 -13.65625 L 8.1875 -5.84375 L 2.734375 -5.84375 Z M 7.203125 -13.65625 "/></g></g></g><g fill="#000000" fill-opacity="0.4"><g transform="translate(180.20396, 35.756531)"><g><path d="M 7.421875 0 L 9.765625 -10.640625 L 20.71875 -22.484375 L 16 -22.484375 L 8.515625 -14.453125 L 4.53125 -22.484375 L 0.0625 -22.484375 L 6 -10.640625 L 3.65625 0 Z M 7.421875 0 "/></g></g></g><g fill="#000000" fill-opacity="0.4"><g transform="translate(200.92286, 35.756531)"><g><path d="M 18.34375 -8.90625 L 21.234375 -22.484375 L 2.53125 -22.484375 L -0.296875 -9.15625 C -0.359375 -8.9375 -0.703125 -6.75 0 -4.6875 C 0.796875 -1.484375 3.4375 0.328125 7.359375 0.328125 C 10.953125 0.328125 14.140625 -1.28125 16.359375 -4.234375 C 17.890625 -6.546875 18.3125 -8.671875 18.34375 -8.90625 Z M 13.140625 -6.265625 C 11.890625 -4.375 10.015625 -3.4375 7.515625 -3.4375 C 5.359375 -3.4375 4.046875 -4.171875 3.40625 -5.8125 C 3.015625 -7.390625 3.4375 -9.15625 3.4375 -9.15625 L 5.46875 -18.734375 L 16.703125 -18.734375 L 14.6875 -9.1875 C 14.6875 -9.15625 14.234375 -7.578125 13.140625 -6.265625 Z M 13.140625 -6.265625 "/></g></g></g><g fill="#ed2828" fill-opacity="1"><g transform="translate(160.827686, 34.336636)"><g><path d="M -0.703125 0 L 0.796875 -2.609375 L 8.734375 -2.609375 L 9.1875 0 L 13.109375 0 L 9 -23.125 L -4.84375 0 Z M 7.203125 -13.65625 L 8.1875 -5.84375 L 2.734375 -5.84375 Z M 7.203125 -13.65625 "/></g></g></g><g fill="#ed2828" fill-opacity="1"><g transform="translate(178.784063, 34.336636)"><g><path d="M 7.421875 0 L 9.765625 -10.640625 L 20.71875 -22.484375 L 16 -22.484375 L 8.515625 -14.453125 L 4.53125 -22.484375 L 0.0625 -22.484375 L 6 -10.640625 L 3.65625 0 Z M 7.421875 0 "/></g></g></g><g fill="#ed2828" fill-opacity="1"><g transform="translate(199.502964, 34.336636)"><g><path d="M 18.34375 -8.90625 L 21.234375 -22.484375 L 2.53125 -22.484375 L -0.296875 -9.15625 C -0.359375 -8.9375 -0.703125 -6.75 0 -4.6875 C 0.796875 -1.484375 3.4375 0.328125 7.359375 0.328125 C 10.953125 0.328125 14.140625 -1.28125 16.359375 -4.234375 C 17.890625 -6.546875 18.3125 -8.671875 18.34375 -8.90625 Z M 13.140625 -6.265625 C 11.890625 -4.375 10.015625 -3.4375 7.515625 -3.4375 C 5.359375 -3.4375 4.046875 -4.171875 3.40625 -5.8125 C 3.015625 -7.390625 3.4375 -9.15625 3.4375 -9.15625 L 5.46875 -18.734375 L 16.703125 -18.734375 L 14.6875 -9.1875 C 14.6875 -9.15625 14.234375 -7.578125 13.140625 -6.265625 Z M 13.140625 -6.265625 "/></g></g></g><path stroke-linecap="butt" transform="matrix(0.550958, 0, 0, 0.550958, 46.844474, 37.883232)" fill="none" stroke-linejoin="miter" d="M 5.216871 23.183294 C 3.820155 23.183294 2.756667 22.750809 2.019314 21.892928 C 1.289052 21.027957 0.884926 19.843939 0.799847 18.333785 L 2.855926 17.787861 C 2.926825 18.85135 3.132433 19.716321 3.479839 20.375684 C 3.834335 21.027957 4.408619 21.354093 5.216871 21.354093 C 5.819514 21.354093 6.273269 21.191025 6.585226 20.850709 C 6.890093 20.517482 7.046071 20.035367 7.046071 19.404364 C 7.046071 18.716641 6.904273 18.149447 6.613586 17.702782 C 6.329989 17.249027 5.869144 16.745642 5.23814 16.199718 L 2.44471 13.739514 C 1.877516 13.243219 1.47339 12.711475 1.218153 12.144281 C 0.970006 11.577087 0.842387 10.882274 0.842387 10.059843 C 0.842387 8.840376 1.189793 7.897416 1.891696 7.230963 C 2.586508 6.55742 3.543648 6.224193 4.741846 6.224193 C 6.060572 6.224193 7.053161 6.5716 7.719614 7.266412 C 8.393157 7.961225 8.797283 9.045984 8.939081 10.513598 L 6.968082 11.045342 C 6.897183 10.074023 6.705755 9.322491 6.400888 8.797836 C 6.088931 8.273182 5.543007 8.003765 4.741846 8.003765 C 4.153382 8.003765 3.706717 8.159743 3.38767 8.46461 C 3.075713 8.776566 2.919735 9.230322 2.919735 9.832965 C 2.919735 10.32926 2.997724 10.740476 3.160792 11.080792 C 3.330951 11.414019 3.607458 11.754335 4.004493 12.094651 L 6.819194 14.561945 C 7.542366 15.200038 8.12374 15.901941 8.556225 16.653473 C 8.988711 17.412095 9.201409 18.262886 9.201409 19.220026 C 9.201409 20.439493 8.832732 21.403723 8.09538 22.119805 C 7.358028 22.828798 6.393798 23.183294 5.216871 23.183294 Z M 10.9668 7.060805 L 13.164677 7.060805 L 13.164677 9.35794 L 10.9668 9.35794 Z M 10.9668 11.130422 L 13.164677 11.130422 L 13.164677 22.998956 L 10.9668 22.998956 Z M 15.518532 11.130422 L 17.56043 11.130422 L 17.56043 12.25772 C 17.950376 11.818144 18.382861 11.492008 18.857886 11.26513 C 19.332911 11.038252 19.829206 10.924814 20.346771 10.924814 C 21.36063 10.924814 22.005813 11.421108 22.28232 12.420788 C 23.104751 11.421108 24.090251 10.924814 25.238819 10.924814 C 25.855642 10.924814 26.359027 11.151691 26.741883 11.598357 C 27.131829 12.052112 27.330347 12.739834 27.330347 13.675705 L 27.330347 22.998956 L 25.316808 22.998956 L 25.316808 13.817503 C 25.316808 13.271579 25.231729 12.888723 25.047391 12.683115 C 24.870143 12.463327 24.621995 12.356979 24.288769 12.356979 C 23.990992 12.356979 23.671945 12.449148 23.345809 12.619306 C 23.019672 12.789464 22.714806 13.023431 22.445388 13.328298 L 22.445388 22.998956 L 20.43185 22.998956 L 20.43185 13.817503 C 20.43185 13.271579 20.339681 12.888723 20.162433 12.683115 C 19.985184 12.463327 19.729947 12.356979 19.403811 12.356979 C 19.113124 12.356979 18.808257 12.449148 18.48212 12.619306 C 18.148894 12.789464 17.844027 13.023431 17.56043 13.328298 L 17.56043 22.998956 L 15.518532 22.998956 Z M 31.187266 23.162024 C 30.542083 23.162024 30.088328 22.935147 29.81182 22.467212 C 29.542403 21.999277 29.400605 21.424993 29.400605 20.73727 L 29.400605 11.130422 L 31.598482 11.130422 L 31.598482 20.084997 C 31.598482 20.538752 31.669381 20.879068 31.804089 21.105946 C 31.938798 21.325734 32.186945 21.439172 32.541442 21.439172 C 32.981017 21.439172 33.498581 21.191025 34.087045 20.70182 L 34.087045 11.130422 L 36.284922 11.130422 L 36.284922 22.998956 L 34.087045 22.998956 L 34.087045 21.829118 C 33.136995 22.722449 32.172766 23.162024 31.187266 23.162024 Z M 38.723856 6.358902 L 40.914643 6.358902 L 40.914643 22.998956 L 38.723856 22.998956 Z M 45.352936 23.162024 C 44.899181 23.162024 44.495055 23.034406 44.133469 22.772078 C 43.771883 22.516841 43.488286 22.169435 43.275588 21.744039 C 43.07707 21.318644 42.970721 20.879068 42.970721 20.411133 C 42.970721 19.482353 43.169239 18.723731 43.566275 18.142357 C 43.963311 17.560983 44.473785 17.100138 45.090609 16.759822 C 45.700342 16.412416 46.558223 16.02247 47.657162 15.582894 L 47.657162 14.739193 C 47.657162 13.959302 47.579173 13.413377 47.423194 13.094331 C 47.260126 12.768194 46.941079 12.605126 46.458964 12.605126 C 45.629443 12.605126 45.211138 13.16523 45.211138 14.292528 L 45.211138 14.888082 L 43.034531 14.803003 C 43.06289 13.491367 43.367757 12.520047 43.942041 11.896133 C 44.516325 11.27222 45.402566 10.967353 46.607853 10.967353 C 47.742241 10.967353 48.571762 11.27222 49.082237 11.896133 C 49.592711 12.520047 49.855038 13.463007 49.855038 14.717924 L 49.855038 20.148806 C 49.855038 21.035047 49.918848 21.985097 50.060646 22.998956 L 48.047108 22.998956 C 47.898219 22.219064 47.79896 21.63769 47.756421 21.254834 C 47.593352 21.786579 47.309755 22.240334 46.90563 22.6161 C 46.501504 22.984776 45.983939 23.162024 45.352936 23.162024 Z M 46.217907 21.276104 C 46.501504 21.276104 46.785101 21.162665 47.061608 20.935788 C 47.331025 20.70891 47.529543 20.496212 47.657162 20.290605 L 47.657162 16.92289 C 47.068698 17.249027 46.607853 17.532624 46.288806 17.773681 C 45.96267 18.014739 45.700342 18.291246 45.487645 18.610292 C 45.274947 18.922249 45.168598 19.298015 45.168598 19.73759 C 45.168598 20.226795 45.253677 20.609651 45.430925 20.871978 C 45.615263 21.141396 45.877591 21.276104 46.217907 21.276104 Z M 54.718727 23.162024 C 53.754497 23.162024 52.981695 22.864247 52.386142 22.261604 C 51.790588 21.65896 51.450272 20.850709 51.365192 19.836849 L 53.194393 19.283835 C 53.307832 20.049547 53.49217 20.616741 53.761587 20.992507 C 54.023914 21.354093 54.40677 21.538431 54.903065 21.538431 C 55.285921 21.538431 55.583698 21.432083 55.796396 21.205205 C 56.009093 20.978327 56.115442 20.673461 56.115442 20.290605 C 56.115442 19.943198 56.037453 19.638332 55.888565 19.361824 C 55.732586 19.092407 55.491529 18.80881 55.151212 18.525213 L 53.116404 16.774002 C 52.648469 16.376966 52.286883 15.95866 52.031645 15.511995 C 51.783498 15.06533 51.655879 14.526496 51.655879 13.881312 C 51.655879 12.959622 51.932386 12.25063 52.478311 11.740155 C 53.024235 11.222591 53.768677 10.967353 54.718727 10.967353 C 55.619147 10.967353 56.32814 11.25804 56.845704 11.839414 C 57.356179 12.420788 57.653956 13.16523 57.739035 14.08692 L 56.257241 14.639934 C 56.165072 13.966392 56.009093 13.455917 55.782216 13.108511 C 55.569518 12.761104 55.236292 12.583856 54.796716 12.583856 C 54.44222 12.583856 54.158623 12.704385 53.945925 12.938352 C 53.733227 13.17232 53.626879 13.455917 53.626879 13.796233 C 53.626879 14.235809 53.825396 14.632844 54.222432 14.994431 L 56.32105 16.92289 C 56.852794 17.412095 57.26401 17.9013 57.561787 18.383415 C 57.852474 18.85844 58.001362 19.439814 58.001362 20.127536 C 58.001362 21.105946 57.710675 21.864568 57.122212 22.382132 C 56.533748 22.906787 55.732586 23.162024 54.718727 23.162024 Z M 59.788023 7.060805 L 61.9859 7.060805 L 61.9859 9.35794 L 59.788023 9.35794 Z M 59.788023 11.130422 L 61.9859 11.130422 L 61.9859 22.998956 L 59.788023 22.998956 Z M 69.231803 6.358902 L 73.35814 6.358902 C 74.797395 6.358902 75.839614 6.755938 76.491887 7.53583 C 77.14416 8.315721 77.470296 9.457199 77.470296 10.967353 C 77.470296 12.321529 77.12289 13.370838 76.420987 14.12946 C 75.726175 14.880992 74.712315 15.256758 73.37941 15.256758 L 71.550209 15.256758 L 71.550209 22.998956 L 69.231803 22.998956 Z M 72.620788 13.590625 C 73.30851 13.590625 73.833165 13.519726 74.208931 13.363748 C 74.591787 13.214859 74.861204 12.959622 75.024272 12.590946 C 75.18734 12.21518 75.27242 11.683436 75.27242 10.981533 C 75.27242 10.137832 75.20861 9.513919 75.080992 9.116883 C 74.960463 8.719847 74.719405 8.43625 74.357819 8.273182 C 73.989143 8.110113 73.421949 8.025034 72.642057 8.025034 L 71.550209 8.025034 L 71.550209 13.590625 Z M 82.192186 23.162024 C 81.270496 23.162024 80.554414 22.991866 80.051029 22.64446 C 79.547644 22.289963 79.186058 21.772399 78.98045 21.091766 C 78.774843 20.404043 78.675584 19.517803 78.675584 18.418864 L 78.675584 15.710513 C 78.675584 14.06565 78.930821 12.860363 79.441295 12.101741 C 79.95886 11.343119 80.87346 10.967353 82.192186 10.967353 C 83.149326 10.967353 83.865409 11.165871 84.354613 11.562907 C 84.836728 11.952853 85.162865 12.512957 85.318843 13.229039 C 85.474822 13.952212 85.552811 14.916441 85.552811 16.142998 L 85.552811 17.100138 L 80.87346 17.100138 L 80.87346 19.489443 C 80.87346 20.212615 80.979809 20.73727 81.185417 21.056317 C 81.398115 21.382453 81.745521 21.538431 82.213456 21.538431 C 82.674301 21.538431 82.986258 21.382453 83.156416 21.056317 C 83.319484 20.73727 83.397474 20.248065 83.397474 19.588702 L 83.397474 18.87262 L 85.538631 18.87262 L 85.538631 19.326375 C 85.538631 20.574202 85.269214 21.524252 84.73038 22.183615 C 84.198635 22.835888 83.354934 23.162024 82.192186 23.162024 Z M 83.397474 15.916121 L 83.397474 14.845542 C 83.397474 14.037291 83.319484 13.455917 83.163506 13.108511 C 83.007528 12.761104 82.674301 12.583856 82.163827 12.583856 C 81.80933 12.583856 81.539913 12.668935 81.355575 12.832004 C 81.171237 13.002162 81.043619 13.271579 80.972719 13.647345 C 80.90182 14.023111 80.87346 14.561945 80.87346 15.278028 L 80.87346 15.916121 Z M 87.601799 11.130422 L 89.806766 11.130422 L 89.806766 12.810734 C 90.217981 12.144281 90.636287 11.669256 91.068772 11.392749 C 91.501258 11.123332 91.955013 10.981533 92.437128 10.981533 C 92.557657 10.981533 92.671096 10.988623 92.784534 11.002803 L 92.784534 13.427557 C 92.344959 13.264489 91.940833 13.17941 91.572157 13.17941 C 91.217661 13.17941 90.898614 13.271579 90.615017 13.441737 C 90.33851 13.611895 90.069093 13.909672 89.806766 14.327978 L 89.806766 22.998956 L 87.601799 22.998956 Z M 94.195429 6.358902 L 96.393306 6.358902 L 96.393306 12.356979 C 97.385896 11.428198 98.378485 10.967353 99.378165 10.967353 C 100.016258 10.967353 100.470013 11.194231 100.73943 11.662166 C 101.008847 12.130101 101.143556 12.704385 101.143556 13.385018 L 101.143556 22.998956 L 98.945679 22.998956 L 98.945679 14.023111 C 98.945679 13.569356 98.87478 13.236129 98.740071 13.023431 C 98.598273 12.803644 98.357215 12.690205 97.995629 12.690205 C 97.520604 12.690205 96.98177 12.945442 96.393306 13.470097 L 96.393306 22.998956 L 94.195429 22.998956 Z M 103.419422 7.060805 L 105.610209 7.060805 L 105.610209 9.35794 L 103.419422 9.35794 Z M 103.419422 11.130422 L 105.610209 11.130422 L 105.610209 22.998956 L 103.419422 22.998956 Z M 111.14035 23.162024 C 109.424588 23.162024 108.566707 22.219064 108.566707 20.333144 L 108.566707 12.583856 L 107.318881 12.583856 L 107.318881 11.130422 L 108.566707 11.130422 L 108.566707 7.656358 L 110.764584 7.656358 L 110.764584 11.130422 L 112.678864 11.130422 L 112.678864 12.583856 L 110.764584 12.583856 L 110.764584 20.184256 C 110.764584 20.666371 110.842573 20.999597 110.991462 21.198115 C 111.14035 21.382453 111.431037 21.481712 111.856433 21.481712 C 112.12585 21.481712 112.395267 21.460442 112.657594 21.417903 L 112.657594 23.041496 C 112.11167 23.126575 111.601195 23.162024 111.14035 23.162024 Z M 116.004039 23.162024 C 115.358856 23.162024 114.9051 22.935147 114.628593 22.467212 C 114.352086 21.999277 114.217378 21.424993 114.217378 20.73727 L 114.217378 11.130422 L 116.415254 11.130422 L 116.415254 20.084997 C 116.415254 20.538752 116.479064 20.879068 116.620862 21.105946 C 116.755571 21.325734 117.003718 21.439172 117.358214 21.439172 C 117.79779 21.439172 118.308264 21.191025 118.896728 20.70182 L 118.896728 11.130422 L 121.094605 11.130422 L 121.094605 22.998956 L 118.896728 22.998956 L 118.896728 21.829118 C 117.953768 22.722449 116.989538 23.162024 116.004039 23.162024 Z M 123.327931 11.130422 L 125.525808 11.130422 L 125.525808 12.300259 C 126.475858 11.406929 127.440088 10.967353 128.425587 10.967353 C 129.07077 10.967353 129.531616 11.194231 129.801033 11.662166 C 130.07045 12.130101 130.212248 12.704385 130.212248 13.385018 L 130.212248 22.998956 L 128.014372 22.998956 L 128.014372 14.023111 C 128.014372 13.569356 127.943472 13.236129 127.808764 13.023431 C 127.674055 12.803644 127.425908 12.690205 127.071412 12.690205 C 126.631836 12.690205 126.121362 12.938352 125.525808 13.427557 L 125.525808 22.998956 L 123.327931 22.998956 Z M 135.430433 26.678627 C 134.274775 26.678627 133.360175 26.494289 132.672452 26.125613 C 131.99182 25.771117 131.644413 25.203923 131.644413 24.438211 C 131.644413 23.920646 131.807482 23.466891 132.126528 23.076945 C 132.445575 22.701179 132.85679 22.389222 133.353085 22.155255 C 132.977319 22.048906 132.693722 21.878748 132.502294 21.64478 C 132.303776 21.410813 132.204517 21.155575 132.204517 20.886158 C 132.204517 20.474943 132.303776 20.113356 132.509384 19.81558 C 132.714992 19.517803 133.048218 19.149127 133.516153 18.730821 C 133.048218 18.376325 132.700812 17.92257 132.473934 17.383735 C 132.247057 16.844901 132.140708 16.114639 132.140708 15.200038 C 132.140708 13.810413 132.424305 12.761104 132.991499 12.045022 C 133.558693 11.321849 134.388214 10.967353 135.487153 10.967353 C 136.118156 10.967353 136.628631 11.073702 137.025666 11.29349 C 137.422702 11.513277 137.727569 11.839414 137.933177 12.278989 C 138.025346 12.130101 138.230954 11.924493 138.53582 11.669256 C 138.840687 11.421108 139.173914 11.208411 139.5355 11.045342 L 139.861636 10.896454 L 140.41465 12.321529 C 140.145233 12.371158 139.762377 12.491687 139.273173 12.668935 C 138.791058 12.846183 138.500371 12.980892 138.408202 13.080151 C 138.500371 13.328298 138.58545 13.668615 138.656349 14.10819 C 138.734338 14.547765 138.769788 14.930621 138.769788 15.256758 C 138.769788 16.561304 138.52164 17.568073 138.011166 18.284156 C 137.507781 19.007328 136.66408 19.361824 135.487153 19.361824 C 135.118476 19.361824 134.74271 19.319285 134.359855 19.220026 C 134.097527 19.602882 133.969909 19.907749 133.969909 20.127536 C 133.969909 20.276425 134.047898 20.396953 134.203876 20.489123 C 134.359855 20.574202 134.608002 20.630921 134.948318 20.659281 L 136.798789 20.822349 C 137.734659 20.900338 138.429471 21.183935 138.876137 21.66605 C 139.329892 22.141075 139.55677 22.828798 139.55677 23.715038 C 139.55677 25.686038 138.181324 26.678627 135.430433 26.678627 Z M 135.487153 17.823311 C 136.075616 17.823311 136.458472 17.617703 136.63572 17.206487 C 136.812969 16.795272 136.905138 16.128819 136.905138 15.200038 C 136.905138 14.249989 136.812969 13.562266 136.63572 13.12978 C 136.458472 12.697295 136.082706 12.484597 135.508422 12.484597 C 134.934138 12.484597 134.544193 12.697295 134.345675 13.12978 C 134.147157 13.562266 134.047898 14.249989 134.047898 15.200038 C 134.047898 16.04374 134.147157 16.696013 134.345675 17.149768 C 134.544193 17.596433 134.927049 17.823311 135.487153 17.823311 Z M 135.586412 24.948685 C 136.373393 24.948685 136.947677 24.856516 137.316353 24.672178 C 137.685029 24.48784 137.869367 24.190063 137.869367 23.778848 C 137.869367 23.395992 137.755929 23.112395 137.521961 22.928057 C 137.287994 22.743719 136.862598 22.62319 136.245775 22.566471 L 134.381124 22.403402 C 134.090437 22.694089 133.87065 22.942237 133.721761 23.162024 C 133.572873 23.381812 133.494884 23.622869 133.494884 23.885197 C 133.494884 24.253873 133.650862 24.52329 133.955729 24.693448 C 134.267685 24.863606 134.80652 24.948685 135.586412 24.948685 Z M 143.413689 23.162024 C 142.959934 23.162024 142.548718 23.034406 142.187132 22.772078 C 141.825546 22.516841 141.541949 22.169435 141.336341 21.744039 C 141.130733 21.318644 141.031474 20.879068 141.031474 20.411133 C 141.031474 19.482353 141.229992 18.723731 141.627028 18.142357 C 142.024063 17.560983 142.527448 17.100138 143.144272 16.759822 C 143.761095 16.412416 144.618976 16.02247 145.710824 15.582894 L 145.710824 14.739193 C 145.710824 13.959302 145.632835 13.413377 145.476857 13.094331 C 145.320879 12.768194 145.001832 12.605126 144.519717 12.605126 C 143.683106 12.605126 143.2648 13.16523 143.2648 14.292528 L 143.2648 14.888082 L 141.088193 14.803003 C 141.116553 13.491367 141.42142 12.520047 141.995704 11.896133 C 142.569988 11.27222 143.463318 10.967353 144.661516 10.967353 C 145.802993 10.967353 146.625425 11.27222 147.135899 11.896133 C 147.653464 12.520047 147.908701 13.463007 147.908701 14.717924 L 147.908701 20.148806 C 147.908701 21.035047 147.9796 21.985097 148.114309 22.998956 L 146.10077 22.998956 C 145.951882 22.219064 145.859713 21.63769 145.810083 21.254834 C 145.647015 21.786579 145.363418 22.240334 144.959292 22.6161 C 144.562257 22.984776 144.044692 23.162024 143.413689 23.162024 Z M 144.27157 21.276104 C 144.562257 21.276104 144.838764 21.162665 145.115271 20.935788 C 145.391778 20.70891 145.590296 20.496212 145.710824 20.290605 L 145.710824 16.92289 C 145.122361 17.249027 144.668605 17.532624 144.342469 17.773681 C 144.023422 18.014739 143.754005 18.291246 143.541307 18.610292 C 143.32861 18.922249 143.222261 19.298015 143.222261 19.73759 C 143.222261 20.226795 143.31443 20.609651 143.491678 20.871978 C 143.668926 21.141396 143.931253 21.276104 144.27157 21.276104 Z M 150.021499 11.130422 L 152.219376 11.130422 L 152.219376 12.300259 C 153.162336 11.406929 154.126565 10.967353 155.119155 10.967353 C 155.764338 10.967353 156.218093 11.194231 156.48751 11.662166 C 156.764018 12.130101 156.898726 12.704385 156.898726 13.385018 L 156.898726 22.998956 L 154.707939 22.998956 L 154.707939 14.023111 C 154.707939 13.569356 154.63704 13.236129 154.502331 13.023431 C 154.360533 12.803644 154.119475 12.690205 153.764979 12.690205 C 153.325404 12.690205 152.807839 12.938352 152.219376 13.427557 L 152.219376 22.998956 L 150.021499 22.998956 Z M 163.917752 6.358902 L 167.271286 6.358902 C 168.958689 6.358902 170.192335 6.706308 170.979317 7.401121 C 171.766299 8.088844 172.163335 9.216142 172.163335 10.775925 C 172.163335 12.917083 171.475612 14.207449 170.107256 14.661204 L 172.468201 22.998956 L 170.227785 22.998956 L 168.051178 15.200038 L 166.243247 15.200038 L 166.243247 22.998956 L 163.917752 22.998956 Z M 167.122398 13.533906 C 168.122077 13.533906 168.83816 13.335388 169.270645 12.938352 C 169.703131 12.534227 169.915828 11.818144 169.915828 10.775925 C 169.915828 10.095292 169.844929 9.556458 169.696041 9.166512 C 169.540062 8.776566 169.277735 8.492969 168.887789 8.308631 C 168.512023 8.117203 167.973189 8.025034 167.271286 8.025034 L 166.243247 8.025034 L 166.243247 13.533906 Z M 177.679296 23.162024 C 176.764696 23.162024 176.048614 22.991866 175.538139 22.64446 C 175.034754 22.289963 174.680258 21.772399 174.47465 21.091766 C 174.269042 20.404043 174.162693 19.517803 174.162693 18.418864 L 174.162693 15.710513 C 174.162693 14.06565 174.425021 12.860363 174.935495 12.101741 C 175.44597 11.343119 176.36057 10.967353 177.679296 10.967353 C 178.636436 10.967353 179.359608 11.165871 179.841723 11.562907 C 180.330928 11.952853 180.649975 12.512957 180.813043 13.229039 C 180.969021 13.952212 181.047011 14.916441 181.047011 16.142998 L 181.047011 17.100138 L 176.36057 17.100138 L 176.36057 19.489443 C 176.36057 20.212615 176.466919 20.73727 176.679617 21.056317 C 176.892315 21.382453 177.232631 21.538431 177.700566 21.538431 C 178.168501 21.538431 178.480458 21.382453 178.643526 21.056317 C 178.806594 20.73727 178.891673 20.248065 178.891673 19.588702 L 178.891673 18.87262 L 181.025741 18.87262 L 181.025741 19.326375 C 181.025741 20.574202 180.756324 21.524252 180.224579 22.183615 C 179.692835 22.835888 178.842044 23.162024 177.679296 23.162024 Z M 178.891673 15.916121 L 178.891673 14.845542 C 178.891673 14.037291 178.813684 13.455917 178.650616 13.108511 C 178.494638 12.761104 178.161411 12.583856 177.658026 12.583856 C 177.30353 12.583856 177.034113 12.668935 176.842685 12.832004 C 176.658347 13.002162 176.530728 13.271579 176.459829 13.647345 C 176.39602 14.023111 176.36057 14.561945 176.36057 15.278028 L 176.36057 15.916121 Z M 186.201386 23.162024 C 184.485624 23.162024 183.634833 22.219064 183.634833 20.333144 L 183.634833 12.583856 L 182.379917 12.583856 L 182.379917 11.130422 L 183.634833 11.130422 L 183.634833 7.656358 L 185.82562 7.656358 L 185.82562 11.130422 L 187.7399 11.130422 L 187.7399 12.583856 L 185.82562 12.583856 L 185.82562 20.184256 C 185.82562 20.666371 185.903609 20.999597 186.052498 21.198115 C 186.201386 21.382453 186.492073 21.481712 186.917469 21.481712 C 187.193976 21.481712 187.456303 21.460442 187.71863 21.417903 L 187.71863 23.041496 C 187.172706 23.126575 186.662231 23.162024 186.201386 23.162024 Z M 189.420212 11.130422 L 191.618089 11.130422 L 191.618089 12.810734 C 192.029304 12.144281 192.4547 11.669256 192.887185 11.392749 C 193.312581 11.123332 193.766336 10.981533 194.248451 10.981533 C 194.36898 10.981533 194.489508 10.988623 194.595857 11.002803 L 194.595857 13.427557 C 194.163372 13.264489 193.759246 13.17941 193.38348 13.17941 C 193.028984 13.17941 192.709937 13.271579 192.43343 13.441737 C 192.149833 13.611895 191.880416 13.909672 191.618089 14.327978 L 191.618089 22.998956 L 189.420212 22.998956 Z M 196.091831 7.060805 L 198.289708 7.060805 L 198.289708 9.35794 L 196.091831 9.35794 Z M 196.091831 11.130422 L 198.289708 11.130422 L 198.289708 22.998956 L 196.091831 22.998956 Z M 204.904608 23.162024 C 204.188526 23.162024 203.522073 22.821708 202.89107 22.133985 L 202.89107 22.998956 L 200.693193 22.998956 L 200.693193 6.358902 L 202.89107 6.358902 L 202.89107 12.073382 C 203.536253 11.336029 204.280695 10.967353 205.131486 10.967353 C 206.209154 10.967353 206.932327 11.428198 207.293913 12.356979 C 207.662589 13.278669 207.839837 14.299618 207.839837 15.419826 L 207.839837 18.298336 C 207.839837 21.545521 206.861428 23.162024 204.904608 23.162024 Z M 204.450853 21.439172 C 204.954238 21.439172 205.280374 21.183935 205.422173 20.673461 C 205.571061 20.155896 205.64196 19.368914 205.64196 18.298336 L 205.64196 15.419826 C 205.64196 14.540675 205.563971 13.867133 205.393813 13.399198 C 205.230745 12.924173 204.890428 12.690205 204.372864 12.690205 C 203.890749 12.690205 203.394454 12.888723 202.89107 13.285759 L 202.89107 20.900338 C 203.344825 21.261924 203.862389 21.439172 204.450853 21.439172 Z M 211.533688 23.162024 C 210.888505 23.162024 210.43475 22.935147 210.158243 22.467212 C 209.881736 21.999277 209.747027 21.424993 209.747027 20.73727 L 209.747027 11.130422 L 211.944904 11.130422 L 211.944904 20.084997 C 211.944904 20.538752 212.015803 20.879068 212.150512 21.105946 C 212.28522 21.325734 212.533368 21.439172 212.887864 21.439172 C 213.327439 21.439172 213.845004 21.191025 214.433467 20.70182 L 214.433467 11.130422 L 216.631344 11.130422 L 216.631344 22.998956 L 214.433467 22.998956 L 214.433467 21.829118 C 213.483418 22.722449 212.519188 23.162024 211.533688 23.162024 Z M 221.615561 23.162024 C 220.658422 23.162024 219.87853 22.864247 219.282976 22.261604 C 218.687422 21.65896 218.347106 20.850709 218.262027 19.836849 L 220.098318 19.283835 C 220.204666 20.049547 220.396094 20.616741 220.658422 20.992507 C 220.927839 21.354093 221.303605 21.538431 221.7999 21.538431 C 222.182755 21.538431 222.480532 21.432083 222.69323 21.205205 C 222.905928 20.978327 223.012277 20.673461 223.012277 20.290605 C 223.012277 19.943198 222.934288 19.638332 222.785399 19.361824 C 222.636511 19.092407 222.388363 18.80881 222.048047 18.525213 L 220.013238 16.774002 C 219.545303 16.376966 219.183717 15.95866 218.93557 15.511995 C 218.680333 15.06533 218.552714 14.526496 218.552714 13.881312 C 218.552714 12.959622 218.829221 12.25063 219.375145 11.740155 C 219.921069 11.222591 220.665512 10.967353 221.615561 10.967353 C 222.515982 10.967353 223.224974 11.25804 223.742539 11.839414 C 224.253014 12.420788 224.55079 13.16523 224.63587 14.08692 L 223.154075 14.639934 C 223.061906 13.966392 222.905928 13.455917 222.68614 13.108511 C 222.466352 12.761104 222.133126 12.583856 221.693551 12.583856 C 221.339054 12.583856 221.055457 12.704385 220.84276 12.938352 C 220.630062 13.17232 220.523713 13.455917 220.523713 13.796233 C 220.523713 14.235809 220.722231 14.632844 221.126357 14.994431 L 223.217885 16.92289 C 223.749629 17.412095 224.160845 17.9013 224.458621 18.383415 C 224.749308 18.85844 224.898197 19.439814 224.898197 20.127536 C 224.898197 21.105946 224.60751 21.864568 224.019046 22.382132 C 223.430582 22.906787 222.629421 23.162024 221.615561 23.162024 Z M 226.684858 7.060805 L 228.882735 7.060805 L 228.882735 9.35794 L 226.684858 9.35794 Z M 226.684858 11.130422 L 228.882735 11.130422 L 228.882735 22.998956 L 226.684858 22.998956 Z M 236.256257 6.358902 L 238.532123 6.358902 L 238.532123 22.998956 L 236.256257 22.998956 Z M 241.034866 11.130422 L 243.232743 11.130422 L 243.232743 12.300259 C 244.175703 11.406929 245.147023 10.967353 246.132522 10.967353 C 246.777705 10.967353 247.231461 11.194231 247.507968 11.662166 C 247.777385 12.130101 247.919183 12.704385 247.919183 13.385018 L 247.919183 22.998956 L 245.721306 22.998956 L 245.721306 14.023111 C 245.721306 13.569356 245.650407 13.236129 245.515699 13.023431 C 245.3739 12.803644 245.132843 12.690205 244.778346 12.690205 C 244.338771 12.690205 243.821207 12.938352 243.232743 13.427557 L 243.232743 22.998956 L 241.034866 22.998956 Z M 252.804142 23.162024 C 251.776102 23.162024 251.02457 22.793348 250.542455 22.048906 C 250.060341 21.297374 249.826373 20.063727 249.826373 18.333785 L 249.826373 16.03665 C 249.826373 14.462686 250.031981 13.221949 250.450286 12.321529 C 250.868592 11.414019 251.634304 10.967353 252.740332 10.967353 C 253.442235 10.967353 254.094508 11.27222 254.711331 11.889043 L 254.711331 6.358902 L 256.909208 6.358902 L 256.909208 22.998956 L 254.711331 22.998956 L 254.711331 22.240334 C 254.137047 22.857157 253.498954 23.162024 252.804142 23.162024 Z M 253.357156 21.439172 C 253.796731 21.439172 254.250486 21.290284 254.711331 20.992507 L 254.711331 13.20068 C 254.200857 12.860363 253.740012 12.690205 253.314616 12.690205 C 252.449645 12.690205 252.01716 13.519726 252.01716 15.171679 L 252.01716 18.525213 C 252.01716 19.482353 252.109329 20.205526 252.286577 20.70182 C 252.463825 21.198115 252.825411 21.439172 253.357156 21.439172 Z M 259.185074 11.130422 L 261.382951 11.130422 L 261.382951 12.810734 C 261.794166 12.144281 262.219562 11.669256 262.652047 11.392749 C 263.077443 11.123332 263.538288 10.981533 264.013313 10.981533 C 264.133842 10.981533 264.25437 10.988623 264.360719 11.002803 L 264.360719 13.427557 C 263.928234 13.264489 263.524108 13.17941 263.148342 13.17941 C 262.793846 13.17941 262.481889 13.271579 262.198292 13.441737 C 261.914695 13.611895 261.645278 13.909672 261.382951 14.327978 L 261.382951 22.998956 L 259.185074 22.998956 Z M 267.848962 23.162024 C 267.402297 23.162024 266.991081 23.034406 266.629495 22.772078 C 266.267909 22.516841 265.984312 22.169435 265.771614 21.744039 C 265.573096 21.318644 265.466748 20.879068 265.466748 20.411133 C 265.466748 19.482353 265.665266 18.723731 266.062301 18.142357 C 266.466427 17.560983 266.969812 17.100138 267.586635 16.759822 C 268.196369 16.412416 269.05425 16.02247 270.153188 15.582894 L 270.153188 14.739193 C 270.153188 13.959302 270.075199 13.413377 269.919221 13.094331 C 269.756152 12.768194 269.437106 12.605126 268.962081 12.605126 C 268.125469 12.605126 267.707164 13.16523 267.707164 14.292528 L 267.707164 14.888082 L 265.530557 14.803003 C 265.558917 13.491367 265.863783 12.520047 266.438067 11.896133 C 267.012351 11.27222 267.898592 10.967353 269.103879 10.967353 C 270.238267 10.967353 271.067788 11.27222 271.578263 11.896133 C 272.088738 12.520047 272.351065 13.463007 272.351065 14.717924 L 272.351065 20.148806 C 272.351065 21.035047 272.414874 21.985097 272.556673 22.998956 L 270.543134 22.998956 C 270.394245 22.219064 270.294987 21.63769 270.252447 21.254834 C 270.089379 21.786579 269.805782 22.240334 269.401656 22.6161 C 268.99753 22.984776 268.479966 23.162024 267.848962 23.162024 Z M 268.713933 21.276104 C 268.99753 21.276104 269.281127 21.162665 269.557634 20.935788 C 269.827051 20.70891 270.025569 20.496212 270.153188 20.290605 L 270.153188 16.92289 C 269.564724 17.249027 269.103879 17.532624 268.784833 17.773681 C 268.458696 18.014739 268.196369 18.291246 267.983671 18.610292 C 267.770973 18.922249 267.664624 19.298015 267.664624 19.73759 C 267.664624 20.226795 267.756793 20.609651 267.934042 20.871978 C 268.11129 21.141396 268.373617 21.276104 268.713933 21.276104 Z M 274.463862 11.130422 L 276.498671 11.130422 L 276.498671 12.25772 C 276.888617 11.818144 277.321102 11.492008 277.796127 11.26513 C 278.271152 11.038252 278.767447 10.924814 279.292101 10.924814 C 280.305961 10.924814 280.944054 11.421108 281.220561 12.420788 C 282.042992 11.421108 283.028492 10.924814 284.17706 10.924814 C 284.793883 10.924814 285.297268 11.151691 285.680124 11.598357 C 286.07716 12.052112 286.268588 12.739834 286.268588 13.675705 L 286.268588 22.998956 L 284.262139 22.998956 L 284.262139 13.817503 C 284.262139 13.271579 284.16997 12.888723 283.985632 12.683115 C 283.808384 12.463327 283.560236 12.356979 283.2341 12.356979 C 282.929233 12.356979 282.617276 12.449148 282.28405 12.619306 C 281.957913 12.789464 281.653046 13.023431 281.383629 13.328298 L 281.383629 22.998956 L 279.370091 22.998956 L 279.370091 13.817503 C 279.370091 13.271579 279.277922 12.888723 279.100673 12.683115 C 278.923425 12.463327 278.675278 12.356979 278.342051 12.356979 C 278.051364 12.356979 277.746498 12.449148 277.420361 12.619306 C 277.094225 12.789464 276.782268 13.023431 276.498671 13.328298 L 276.498671 22.998956 L 274.463862 22.998956 Z M 290.557992 23.162024 C 290.104237 23.162024 289.700111 23.034406 289.331435 22.772078 C 288.969849 22.516841 288.686252 22.169435 288.480644 21.744039 C 288.275036 21.318644 288.175777 20.879068 288.175777 20.411133 C 288.175777 19.482353 288.374295 18.723731 288.771331 18.142357 C 289.168367 17.560983 289.678841 17.100138 290.288575 16.759822 C 290.905399 16.412416 291.763279 16.02247 292.862218 15.582894 L 292.862218 14.739193 C 292.862218 13.959302 292.784229 13.413377 292.62116 13.094331 C 292.465182 12.768194 292.146135 12.605126 291.66402 12.605126 C 290.827409 12.605126 290.409104 13.16523 290.409104 14.292528 L 290.409104 14.888082 L 288.239587 14.803003 C 288.267946 13.491367 288.565723 12.520047 289.147097 11.896133 C 289.721381 11.27222 290.607622 10.967353 291.812909 10.967353 C 292.947297 10.967353 293.769728 11.27222 294.280203 11.896133 C 294.797767 12.520047 295.053005 13.463007 295.053005 14.717924 L 295.053005 20.148806 C 295.053005 21.035047 295.123904 21.985097 295.258612 22.998956 L 293.252164 22.998956 C 293.103275 22.219064 293.004016 21.63769 292.961477 21.254834 C 292.798408 21.786579 292.514811 22.240334 292.110686 22.6161 C 291.70656 22.984776 291.188996 23.162024 290.557992 23.162024 Z M 291.422963 21.276104 C 291.70656 21.276104 291.990157 21.162665 292.259574 20.935788 C 292.536081 20.70891 292.734599 20.496212 292.862218 20.290605 L 292.862218 16.92289 C 292.273754 17.249027 291.812909 17.532624 291.493862 17.773681 C 291.167726 18.014739 290.905399 18.291246 290.685611 18.610292 C 290.480003 18.922249 290.373654 19.298015 290.373654 19.73759 C 290.373654 20.226795 290.458733 20.609651 290.635981 20.871978 C 290.820319 21.141396 291.082647 21.276104 291.422963 21.276104 Z M 296.981464 24.296412 C 297.803896 24.296412 298.37109 24.232603 298.675956 24.104984 C 298.987913 23.984456 299.136801 23.750488 299.136801 23.410172 C 299.136801 23.247103 298.987913 22.523931 298.690136 21.233565 L 296.307921 11.130422 L 298.527068 11.130422 L 300.129391 19.999918 L 301.667905 11.130422 L 303.887051 11.130422 L 301.051081 23.658319 C 300.859653 24.49493 300.455527 25.090484 299.838704 25.44498 C 299.221881 25.799476 298.35691 25.976724 297.250881 25.976724 L 296.981464 25.976724 Z M 306.921539 23.162024 C 306.276356 23.162024 305.822601 22.935147 305.546094 22.467212 C 305.269587 21.999277 305.134878 21.424993 305.134878 20.73727 L 305.134878 11.130422 L 307.332755 11.130422 L 307.332755 20.084997 C 307.332755 20.538752 307.403654 20.879068 307.538363 21.105946 C 307.673071 21.325734 307.921219 21.439172 308.275715 21.439172 C 308.71529 21.439172 309.232855 21.191025 309.821318 20.70182 L 309.821318 11.130422 L 312.019195 11.130422 L 312.019195 22.998956 L 309.821318 22.998956 L 309.821318 21.829118 C 308.871268 22.722449 307.907039 23.162024 306.921539 23.162024 Z M 306.921539 23.162024 " stroke="#000000" stroke-width="1.54113" stroke-opacity="1" stroke-miterlimit="4"/><g fill="#ffffff" fill-opacity="1"><g transform="translate(46.844474, 50.555263)"><g><path d="M 2.875 0.109375 C 2.101562 0.109375 1.515625 -0.128906 1.109375 -0.609375 C 0.710938 -1.085938 0.488281 -1.738281 0.4375 -2.5625 L 1.578125 -2.875 C 1.609375 -2.28125 1.71875 -1.800781 1.90625 -1.4375 C 2.101562 -1.082031 2.425781 -0.90625 2.875 -0.90625 C 3.207031 -0.90625 3.457031 -0.992188 3.625 -1.171875 C 3.789062 -1.359375 3.875 -1.628906 3.875 -1.984375 C 3.875 -2.359375 3.796875 -2.671875 3.640625 -2.921875 C 3.484375 -3.171875 3.234375 -3.445312 2.890625 -3.75 L 1.34375 -5.109375 C 1.03125 -5.378906 0.804688 -5.671875 0.671875 -5.984375 C 0.535156 -6.296875 0.46875 -6.675781 0.46875 -7.125 C 0.46875 -7.800781 0.660156 -8.320312 1.046875 -8.6875 C 1.429688 -9.0625 1.953125 -9.25 2.609375 -9.25 C 3.335938 -9.25 3.882812 -9.054688 4.25 -8.671875 C 4.625 -8.285156 4.847656 -7.6875 4.921875 -6.875 L 3.828125 -6.578125 C 3.796875 -7.117188 3.691406 -7.535156 3.515625 -7.828125 C 3.347656 -8.117188 3.046875 -8.265625 2.609375 -8.265625 C 2.285156 -8.265625 2.035156 -8.175781 1.859375 -8 C 1.691406 -7.832031 1.609375 -7.582031 1.609375 -7.25 C 1.609375 -6.976562 1.648438 -6.75 1.734375 -6.5625 C 1.828125 -6.382812 1.984375 -6.195312 2.203125 -6 L 3.75 -4.65625 C 4.15625 -4.300781 4.472656 -3.914062 4.703125 -3.5 C 4.941406 -3.082031 5.0625 -2.609375 5.0625 -2.078125 C 5.0625 -1.410156 4.859375 -0.878906 4.453125 -0.484375 C 4.046875 -0.0859375 3.519531 0.109375 2.875 0.109375 Z M 2.875 0.109375 "/></g></g></g><g fill="#ffffff" fill-opacity="1"><g transform="translate(52.19496, 50.555263)"><g><path d="M 0.6875 -8.78125 L 1.90625 -8.78125 L 1.90625 -7.515625 L 0.6875 -7.515625 Z M 0.6875 -6.53125 L 1.90625 -6.53125 L 1.90625 0 L 0.6875 0 Z M 0.6875 -6.53125 "/></g></g></g><g fill="#ffffff" fill-opacity="1"><g transform="translate(54.785368, 50.555263)"><g><path d="M 0.609375 -6.53125 L 1.734375 -6.53125 L 1.734375 -5.921875 C 1.953125 -6.160156 2.191406 -6.34375 2.453125 -6.46875 C 2.710938 -6.59375 2.984375 -6.65625 3.265625 -6.65625 C 3.828125 -6.65625 4.179688 -6.378906 4.328125 -5.828125 C 4.785156 -6.378906 5.332031 -6.65625 5.96875 -6.65625 C 6.300781 -6.65625 6.570312 -6.53125 6.78125 -6.28125 C 7 -6.03125 7.109375 -5.648438 7.109375 -5.140625 L 7.109375 0 L 6 0 L 6 -5.0625 C 6 -5.363281 5.953125 -5.570312 5.859375 -5.6875 C 5.765625 -5.800781 5.625 -5.859375 5.4375 -5.859375 C 5.269531 -5.859375 5.097656 -5.8125 4.921875 -5.71875 C 4.742188 -5.625 4.578125 -5.492188 4.421875 -5.328125 L 4.421875 0 L 3.3125 0 L 3.3125 -5.0625 C 3.3125 -5.363281 3.257812 -5.570312 3.15625 -5.6875 C 3.0625 -5.800781 2.925781 -5.859375 2.75 -5.859375 C 2.59375 -5.859375 2.421875 -5.8125 2.234375 -5.71875 C 2.054688 -5.625 1.890625 -5.492188 1.734375 -5.328125 L 1.734375 0 L 0.609375 0 Z M 0.609375 -6.53125 "/></g></g></g><g fill="#ffffff" fill-opacity="1"><g transform="translate(62.477399, 50.555263)"><g><path d="M 1.546875 0.09375 C 1.191406 0.09375 0.9375 -0.03125 0.78125 -0.28125 C 0.632812 -0.539062 0.5625 -0.863281 0.5625 -1.25 L 0.5625 -6.53125 L 1.78125 -6.53125 L 1.78125 -1.609375 C 1.78125 -1.359375 1.816406 -1.171875 1.890625 -1.046875 C 1.960938 -0.921875 2.097656 -0.859375 2.296875 -0.859375 C 2.535156 -0.859375 2.816406 -0.992188 3.140625 -1.265625 L 3.140625 -6.53125 L 4.359375 -6.53125 L 4.359375 0 L 3.140625 0 L 3.140625 -0.640625 C 2.617188 -0.148438 2.085938 0.09375 1.546875 0.09375 Z M 1.546875 0.09375 "/></g></g></g><g fill="#ffffff" fill-opacity="1"><g transform="translate(67.4546, 50.555263)"><g><path d="M 0.71875 -9.15625 L 1.9375 -9.15625 L 1.9375 0 L 0.71875 0 Z M 0.71875 -9.15625 "/></g></g></g><g fill="#ffffff" fill-opacity="1"><g transform="translate(70.045008, 50.555263)"><g><path d="M 1.78125 0.09375 C 1.53125 0.09375 1.304688 0.0195312 1.109375 -0.125 C 0.910156 -0.269531 0.753906 -0.457031 0.640625 -0.6875 C 0.523438 -0.925781 0.46875 -1.171875 0.46875 -1.421875 C 0.46875 -1.929688 0.578125 -2.347656 0.796875 -2.671875 C 1.015625 -2.992188 1.296875 -3.25 1.640625 -3.4375 C 1.984375 -3.625 2.453125 -3.835938 3.046875 -4.078125 L 3.046875 -4.546875 C 3.046875 -4.972656 3.003906 -5.273438 2.921875 -5.453125 C 2.835938 -5.628906 2.660156 -5.71875 2.390625 -5.71875 C 1.929688 -5.71875 1.703125 -5.410156 1.703125 -4.796875 L 1.703125 -4.46875 L 0.515625 -4.515625 C 0.523438 -5.234375 0.6875 -5.765625 1 -6.109375 C 1.320312 -6.453125 1.816406 -6.625 2.484375 -6.625 C 3.109375 -6.625 3.5625 -6.453125 3.84375 -6.109375 C 4.125 -5.765625 4.265625 -5.25 4.265625 -4.5625 L 4.265625 -1.578125 C 4.265625 -1.085938 4.300781 -0.5625 4.375 0 L 3.265625 0 C 3.179688 -0.425781 3.128906 -0.75 3.109375 -0.96875 C 3.015625 -0.664062 2.859375 -0.410156 2.640625 -0.203125 C 2.421875 -0.00390625 2.132812 0.09375 1.78125 0.09375 Z M 2.265625 -0.953125 C 2.421875 -0.953125 2.570312 -1.015625 2.71875 -1.140625 C 2.875 -1.265625 2.984375 -1.382812 3.046875 -1.5 L 3.046875 -3.34375 C 2.722656 -3.164062 2.472656 -3.007812 2.296875 -2.875 C 2.117188 -2.75 1.972656 -2.597656 1.859375 -2.421875 C 1.742188 -2.242188 1.6875 -2.035156 1.6875 -1.796875 C 1.6875 -1.523438 1.734375 -1.316406 1.828125 -1.171875 C 1.929688 -1.023438 2.078125 -0.953125 2.265625 -0.953125 Z M 2.265625 -0.953125 "/></g></g></g><g fill="#ffffff" fill-opacity="1"><g transform="translate(74.863838, 50.555263)"><g><path d="M 2.125 0.09375 C 1.59375 0.09375 1.160156 -0.0703125 0.828125 -0.40625 C 0.503906 -0.738281 0.320312 -1.179688 0.28125 -1.734375 L 1.296875 -2.046875 C 1.347656 -1.617188 1.445312 -1.300781 1.59375 -1.09375 C 1.75 -0.894531 1.960938 -0.796875 2.234375 -0.796875 C 2.441406 -0.796875 2.601562 -0.859375 2.71875 -0.984375 C 2.832031 -1.109375 2.890625 -1.28125 2.890625 -1.5 C 2.890625 -1.6875 2.847656 -1.851562 2.765625 -2 C 2.679688 -2.15625 2.546875 -2.3125 2.359375 -2.46875 L 1.25 -3.421875 C 0.988281 -3.640625 0.785156 -3.867188 0.640625 -4.109375 C 0.503906 -4.359375 0.4375 -4.660156 0.4375 -5.015625 C 0.4375 -5.523438 0.585938 -5.921875 0.890625 -6.203125 C 1.191406 -6.484375 1.601562 -6.625 2.125 -6.625 C 2.625 -6.625 3.015625 -6.460938 3.296875 -6.140625 C 3.578125 -5.828125 3.742188 -5.414062 3.796875 -4.90625 L 2.96875 -4.609375 C 2.914062 -4.972656 2.828125 -5.25 2.703125 -5.4375 C 2.585938 -5.632812 2.410156 -5.734375 2.171875 -5.734375 C 1.972656 -5.734375 1.816406 -5.664062 1.703125 -5.53125 C 1.585938 -5.40625 1.53125 -5.25 1.53125 -5.0625 C 1.53125 -4.820312 1.640625 -4.601562 1.859375 -4.40625 L 3.015625 -3.34375 C 3.304688 -3.070312 3.53125 -2.804688 3.6875 -2.546875 C 3.851562 -2.285156 3.9375 -1.960938 3.9375 -1.578125 C 3.9375 -1.035156 3.773438 -0.617188 3.453125 -0.328125 C 3.128906 -0.046875 2.6875 0.09375 2.125 0.09375 Z M 2.125 0.09375 "/></g></g></g><g fill="#ffffff" fill-opacity="1"><g transform="translate(79.094459, 50.555263)"><g><path d="M 0.6875 -8.78125 L 1.90625 -8.78125 L 1.90625 -7.515625 L 0.6875 -7.515625 Z M 0.6875 -6.53125 L 1.90625 -6.53125 L 1.90625 0 L 0.6875 0 Z M 0.6875 -6.53125 "/></g></g></g><g fill="#ffffff" fill-opacity="1"><g transform="translate(81.684867, 50.555263)"><g/></g></g><g fill="#ffffff" fill-opacity="1"><g transform="translate(84.275275, 50.555263)"><g><path d="M 0.71875 -9.15625 L 2.984375 -9.15625 C 3.773438 -9.15625 4.347656 -8.941406 4.703125 -8.515625 C 5.066406 -8.085938 5.25 -7.457031 5.25 -6.625 C 5.25 -5.882812 5.054688 -5.304688 4.671875 -4.890625 C 4.285156 -4.472656 3.726562 -4.265625 3 -4.265625 L 1.984375 -4.265625 L 1.984375 0 L 0.71875 0 Z M 2.578125 -5.1875 C 2.953125 -5.1875 3.242188 -5.226562 3.453125 -5.3125 C 3.660156 -5.394531 3.804688 -5.535156 3.890625 -5.734375 C 3.984375 -5.941406 4.03125 -6.238281 4.03125 -6.625 C 4.03125 -7.082031 3.992188 -7.421875 3.921875 -7.640625 C 3.859375 -7.859375 3.726562 -8.015625 3.53125 -8.109375 C 3.332031 -8.203125 3.019531 -8.25 2.59375 -8.25 L 1.984375 -8.25 L 1.984375 -5.1875 Z M 2.578125 -5.1875 "/></g></g></g><g fill="#ffffff" fill-opacity="1"><g transform="translate(89.704946, 50.555263)"><g><path d="M 2.421875 0.09375 C 1.910156 0.09375 1.515625 0 1.234375 -0.1875 C 0.960938 -0.382812 0.769531 -0.671875 0.65625 -1.046875 C 0.539062 -1.429688 0.484375 -1.921875 0.484375 -2.515625 L 0.484375 -4.015625 C 0.484375 -4.921875 0.625 -5.582031 0.90625 -6 C 1.1875 -6.414062 1.691406 -6.625 2.421875 -6.625 C 2.953125 -6.625 3.347656 -6.515625 3.609375 -6.296875 C 3.878906 -6.078125 4.054688 -5.769531 4.140625 -5.375 C 4.234375 -4.976562 4.28125 -4.445312 4.28125 -3.78125 L 4.28125 -3.25 L 1.703125 -3.25 L 1.703125 -1.9375 C 1.703125 -1.53125 1.757812 -1.238281 1.875 -1.0625 C 1.988281 -0.882812 2.175781 -0.796875 2.4375 -0.796875 C 2.6875 -0.796875 2.859375 -0.882812 2.953125 -1.0625 C 3.046875 -1.238281 3.09375 -1.507812 3.09375 -1.875 L 3.09375 -2.28125 L 4.265625 -2.28125 L 4.265625 -2.03125 C 4.265625 -1.34375 4.113281 -0.816406 3.8125 -0.453125 C 3.519531 -0.0859375 3.054688 0.09375 2.421875 0.09375 Z M 3.09375 -3.90625 L 3.09375 -4.484375 C 3.09375 -4.929688 3.046875 -5.25 2.953125 -5.4375 C 2.867188 -5.632812 2.6875 -5.734375 2.40625 -5.734375 C 2.207031 -5.734375 2.054688 -5.6875 1.953125 -5.59375 C 1.859375 -5.507812 1.789062 -5.363281 1.75 -5.15625 C 1.71875 -4.945312 1.703125 -4.644531 1.703125 -4.25 L 1.703125 -3.90625 Z M 3.09375 -3.90625 "/></g></g></g><g fill="#ffffff" fill-opacity="1"><g transform="translate(94.467223, 50.555263)"><g><path d="M 0.640625 -6.53125 L 1.859375 -6.53125 L 1.859375 -5.609375 C 2.078125 -5.984375 2.304688 -6.242188 2.546875 -6.390625 C 2.785156 -6.546875 3.035156 -6.625 3.296875 -6.625 C 3.367188 -6.625 3.4375 -6.617188 3.5 -6.609375 L 3.5 -5.265625 C 3.257812 -5.359375 3.035156 -5.40625 2.828125 -5.40625 C 2.628906 -5.40625 2.453125 -5.359375 2.296875 -5.265625 C 2.140625 -5.171875 1.992188 -5.007812 1.859375 -4.78125 L 1.859375 0 L 0.640625 0 Z M 0.640625 -6.53125 "/></g></g></g><g fill="#ffffff" fill-opacity="1"><g transform="translate(98.098319, 50.555263)"><g><path d="M 0.640625 -9.15625 L 1.859375 -9.15625 L 1.859375 -5.859375 C 2.398438 -6.367188 2.945312 -6.625 3.5 -6.625 C 3.851562 -6.625 4.101562 -6.492188 4.25 -6.234375 C 4.394531 -5.984375 4.46875 -5.671875 4.46875 -5.296875 L 4.46875 0 L 3.265625 0 L 3.265625 -4.9375 C 3.265625 -5.1875 3.222656 -5.367188 3.140625 -5.484375 C 3.066406 -5.609375 2.929688 -5.671875 2.734375 -5.671875 C 2.472656 -5.671875 2.179688 -5.53125 1.859375 -5.25 L 1.859375 0 L 0.640625 0 Z M 0.640625 -9.15625 "/></g></g></g><g fill="#ffffff" fill-opacity="1"><g transform="translate(103.132073, 50.555263)"><g><path d="M 0.6875 -8.78125 L 1.90625 -8.78125 L 1.90625 -7.515625 L 0.6875 -7.515625 Z M 0.6875 -6.53125 L 1.90625 -6.53125 L 1.90625 0 L 0.6875 0 Z M 0.6875 -6.53125 "/></g></g></g><g fill="#ffffff" fill-opacity="1"><g transform="translate(105.722481, 50.555263)"><g><path d="M 2.359375 0.09375 C 1.410156 0.09375 0.9375 -0.425781 0.9375 -1.46875 L 0.9375 -5.734375 L 0.25 -5.734375 L 0.25 -6.53125 L 0.9375 -6.53125 L 0.9375 -8.453125 L 2.15625 -8.453125 L 2.15625 -6.53125 L 3.203125 -6.53125 L 3.203125 -5.734375 L 2.15625 -5.734375 L 2.15625 -1.546875 C 2.15625 -1.285156 2.191406 -1.101562 2.265625 -1 C 2.347656 -0.894531 2.507812 -0.84375 2.75 -0.84375 C 2.894531 -0.84375 3.039062 -0.851562 3.1875 -0.875 L 3.1875 0.015625 C 2.882812 0.0664062 2.609375 0.09375 2.359375 0.09375 Z M 2.359375 0.09375 "/></g></g></g><g fill="#ffffff" fill-opacity="1"><g transform="translate(109.206523, 50.555263)"><g><path d="M 1.546875 0.09375 C 1.191406 0.09375 0.9375 -0.03125 0.78125 -0.28125 C 0.632812 -0.539062 0.5625 -0.863281 0.5625 -1.25 L 0.5625 -6.53125 L 1.78125 -6.53125 L 1.78125 -1.609375 C 1.78125 -1.359375 1.816406 -1.171875 1.890625 -1.046875 C 1.960938 -0.921875 2.097656 -0.859375 2.296875 -0.859375 C 2.535156 -0.859375 2.816406 -0.992188 3.140625 -1.265625 L 3.140625 -6.53125 L 4.359375 -6.53125 L 4.359375 0 L 3.140625 0 L 3.140625 -0.640625 C 2.617188 -0.148438 2.085938 0.09375 1.546875 0.09375 Z M 1.546875 0.09375 "/></g></g></g><g fill="#ffffff" fill-opacity="1"><g transform="translate(114.183723, 50.555263)"><g><path d="M 0.609375 -6.53125 L 1.828125 -6.53125 L 1.828125 -5.890625 C 2.347656 -6.378906 2.878906 -6.625 3.421875 -6.625 C 3.773438 -6.625 4.023438 -6.492188 4.171875 -6.234375 C 4.328125 -5.984375 4.40625 -5.671875 4.40625 -5.296875 L 4.40625 0 L 3.1875 0 L 3.1875 -4.9375 C 3.1875 -5.1875 3.148438 -5.367188 3.078125 -5.484375 C 3.003906 -5.609375 2.867188 -5.671875 2.671875 -5.671875 C 2.429688 -5.671875 2.148438 -5.535156 1.828125 -5.265625 L 1.828125 0 L 0.609375 0 Z M 0.609375 -6.53125 "/></g></g></g><g fill="#ffffff" fill-opacity="1"><g transform="translate(119.149607, 50.555263)"><g><path d="M 2.3125 2.03125 C 1.675781 2.03125 1.164062 1.925781 0.78125 1.71875 C 0.40625 1.519531 0.21875 1.210938 0.21875 0.796875 C 0.21875 0.503906 0.304688 0.253906 0.484375 0.046875 C 0.671875 -0.160156 0.898438 -0.332031 1.171875 -0.46875 C 0.960938 -0.519531 0.800781 -0.609375 0.6875 -0.734375 C 0.582031 -0.867188 0.53125 -1.015625 0.53125 -1.171875 C 0.53125 -1.390625 0.585938 -1.582031 0.703125 -1.75 C 0.816406 -1.914062 1 -2.117188 1.25 -2.359375 C 1 -2.546875 0.8125 -2.789062 0.6875 -3.09375 C 0.5625 -3.394531 0.5 -3.796875 0.5 -4.296875 C 0.5 -5.054688 0.65625 -5.632812 0.96875 -6.03125 C 1.28125 -6.425781 1.738281 -6.625 2.34375 -6.625 C 2.6875 -6.625 2.96875 -6.5625 3.1875 -6.4375 C 3.40625 -6.320312 3.570312 -6.144531 3.6875 -5.90625 C 3.738281 -5.988281 3.847656 -6.097656 4.015625 -6.234375 C 4.191406 -6.378906 4.375 -6.492188 4.5625 -6.578125 L 4.75 -6.65625 L 5.0625 -5.875 C 4.90625 -5.851562 4.691406 -5.789062 4.421875 -5.6875 C 4.160156 -5.59375 4.003906 -5.519531 3.953125 -5.46875 C 4.003906 -5.332031 4.050781 -5.140625 4.09375 -4.890625 C 4.132812 -4.648438 4.15625 -4.441406 4.15625 -4.265625 C 4.15625 -3.546875 4.015625 -2.988281 3.734375 -2.59375 C 3.453125 -2.195312 2.988281 -2 2.34375 -2 C 2.132812 -2 1.925781 -2.023438 1.71875 -2.078125 C 1.570312 -1.867188 1.5 -1.703125 1.5 -1.578125 C 1.5 -1.492188 1.539062 -1.425781 1.625 -1.375 C 1.71875 -1.332031 1.859375 -1.304688 2.046875 -1.296875 L 3.0625 -1.203125 C 3.570312 -1.148438 3.953125 -0.992188 4.203125 -0.734375 C 4.453125 -0.472656 4.578125 -0.0976562 4.578125 0.390625 C 4.578125 1.484375 3.820312 2.03125 2.3125 2.03125 Z M 2.34375 -2.84375 C 2.664062 -2.84375 2.875 -2.957031 2.96875 -3.1875 C 3.070312 -3.414062 3.125 -3.785156 3.125 -4.296875 C 3.125 -4.816406 3.070312 -5.195312 2.96875 -5.4375 C 2.875 -5.675781 2.671875 -5.796875 2.359375 -5.796875 C 2.035156 -5.796875 1.816406 -5.675781 1.703125 -5.4375 C 1.597656 -5.195312 1.546875 -4.816406 1.546875 -4.296875 C 1.546875 -3.828125 1.597656 -3.46875 1.703125 -3.21875 C 1.816406 -2.96875 2.03125 -2.84375 2.34375 -2.84375 Z M 2.390625 1.078125 C 2.828125 1.078125 3.144531 1.023438 3.34375 0.921875 C 3.550781 0.816406 3.65625 0.65625 3.65625 0.4375 C 3.65625 0.21875 3.585938 0.0625 3.453125 -0.03125 C 3.328125 -0.132812 3.097656 -0.203125 2.765625 -0.234375 L 1.734375 -0.328125 C 1.578125 -0.171875 1.457031 -0.0351562 1.375 0.078125 C 1.289062 0.203125 1.25 0.335938 1.25 0.484375 C 1.25 0.691406 1.332031 0.84375 1.5 0.9375 C 1.664062 1.03125 1.960938 1.078125 2.390625 1.078125 Z M 2.390625 1.078125 "/></g></g></g><g fill="#ffffff" fill-opacity="1"><g transform="translate(124.070246, 50.555263)"><g><path d="M 1.78125 0.09375 C 1.53125 0.09375 1.304688 0.0195312 1.109375 -0.125 C 0.910156 -0.269531 0.753906 -0.457031 0.640625 -0.6875 C 0.523438 -0.925781 0.46875 -1.171875 0.46875 -1.421875 C 0.46875 -1.929688 0.578125 -2.347656 0.796875 -2.671875 C 1.015625 -2.992188 1.296875 -3.25 1.640625 -3.4375 C 1.984375 -3.625 2.453125 -3.835938 3.046875 -4.078125 L 3.046875 -4.546875 C 3.046875 -4.972656 3.003906 -5.273438 2.921875 -5.453125 C 2.835938 -5.628906 2.660156 -5.71875 2.390625 -5.71875 C 1.929688 -5.71875 1.703125 -5.410156 1.703125 -4.796875 L 1.703125 -4.46875 L 0.515625 -4.515625 C 0.523438 -5.234375 0.6875 -5.765625 1 -6.109375 C 1.320312 -6.453125 1.816406 -6.625 2.484375 -6.625 C 3.109375 -6.625 3.5625 -6.453125 3.84375 -6.109375 C 4.125 -5.765625 4.265625 -5.25 4.265625 -4.5625 L 4.265625 -1.578125 C 4.265625 -1.085938 4.300781 -0.5625 4.375 0 L 3.265625 0 C 3.179688 -0.425781 3.128906 -0.75 3.109375 -0.96875 C 3.015625 -0.664062 2.859375 -0.410156 2.640625 -0.203125 C 2.421875 -0.00390625 2.132812 0.09375 1.78125 0.09375 Z M 2.265625 -0.953125 C 2.421875 -0.953125 2.570312 -1.015625 2.71875 -1.140625 C 2.875 -1.265625 2.984375 -1.382812 3.046875 -1.5 L 3.046875 -3.34375 C 2.722656 -3.164062 2.472656 -3.007812 2.296875 -2.875 C 2.117188 -2.75 1.972656 -2.597656 1.859375 -2.421875 C 1.742188 -2.242188 1.6875 -2.035156 1.6875 -1.796875 C 1.6875 -1.523438 1.734375 -1.316406 1.828125 -1.171875 C 1.929688 -1.023438 2.078125 -0.953125 2.265625 -0.953125 Z M 2.265625 -0.953125 "/></g></g></g><g fill="#ffffff" fill-opacity="1"><g transform="translate(128.889076, 50.555263)"><g><path d="M 0.609375 -6.53125 L 1.828125 -6.53125 L 1.828125 -5.890625 C 2.347656 -6.378906 2.878906 -6.625 3.421875 -6.625 C 3.773438 -6.625 4.023438 -6.492188 4.171875 -6.234375 C 4.328125 -5.984375 4.40625 -5.671875 4.40625 -5.296875 L 4.40625 0 L 3.1875 0 L 3.1875 -4.9375 C 3.1875 -5.1875 3.148438 -5.367188 3.078125 -5.484375 C 3.003906 -5.609375 2.867188 -5.671875 2.671875 -5.671875 C 2.429688 -5.671875 2.148438 -5.535156 1.828125 -5.265625 L 1.828125 0 L 0.609375 0 Z M 0.609375 -6.53125 "/></g></g></g><g fill="#ffffff" fill-opacity="1"><g transform="translate(133.85496, 50.555263)"><g/></g></g><g fill="#ffffff" fill-opacity="1"><g transform="translate(136.445369, 50.555263)"><g><path d="M 0.71875 -9.15625 L 2.5625 -9.15625 C 3.488281 -9.15625 4.164062 -8.960938 4.59375 -8.578125 C 5.03125 -8.203125 5.25 -7.585938 5.25 -6.734375 C 5.25 -5.554688 4.875 -4.84375 4.125 -4.59375 L 5.421875 0 L 4.1875 0 L 2.984375 -4.296875 L 1.984375 -4.296875 L 1.984375 0 L 0.71875 0 Z M 2.484375 -5.21875 C 3.023438 -5.21875 3.414062 -5.328125 3.65625 -5.546875 C 3.894531 -5.765625 4.015625 -6.160156 4.015625 -6.734375 C 4.015625 -7.109375 3.972656 -7.398438 3.890625 -7.609375 C 3.804688 -7.828125 3.660156 -7.988281 3.453125 -8.09375 C 3.242188 -8.195312 2.945312 -8.25 2.5625 -8.25 L 1.984375 -8.25 L 1.984375 -5.21875 Z M 2.484375 -5.21875 "/></g></g></g><g fill="#ffffff" fill-opacity="1"><g transform="translate(142.316202, 50.555263)"><g><path d="M 2.421875 0.09375 C 1.910156 0.09375 1.515625 0 1.234375 -0.1875 C 0.960938 -0.382812 0.769531 -0.671875 0.65625 -1.046875 C 0.539062 -1.429688 0.484375 -1.921875 0.484375 -2.515625 L 0.484375 -4.015625 C 0.484375 -4.921875 0.625 -5.582031 0.90625 -6 C 1.1875 -6.414062 1.691406 -6.625 2.421875 -6.625 C 2.953125 -6.625 3.347656 -6.515625 3.609375 -6.296875 C 3.878906 -6.078125 4.054688 -5.769531 4.140625 -5.375 C 4.234375 -4.976562 4.28125 -4.445312 4.28125 -3.78125 L 4.28125 -3.25 L 1.703125 -3.25 L 1.703125 -1.9375 C 1.703125 -1.53125 1.757812 -1.238281 1.875 -1.0625 C 1.988281 -0.882812 2.175781 -0.796875 2.4375 -0.796875 C 2.6875 -0.796875 2.859375 -0.882812 2.953125 -1.0625 C 3.046875 -1.238281 3.09375 -1.507812 3.09375 -1.875 L 3.09375 -2.28125 L 4.265625 -2.28125 L 4.265625 -2.03125 C 4.265625 -1.34375 4.113281 -0.816406 3.8125 -0.453125 C 3.519531 -0.0859375 3.054688 0.09375 2.421875 0.09375 Z M 3.09375 -3.90625 L 3.09375 -4.484375 C 3.09375 -4.929688 3.046875 -5.25 2.953125 -5.4375 C 2.867188 -5.632812 2.6875 -5.734375 2.40625 -5.734375 C 2.207031 -5.734375 2.054688 -5.6875 1.953125 -5.59375 C 1.859375 -5.507812 1.789062 -5.363281 1.75 -5.15625 C 1.71875 -4.945312 1.703125 -4.644531 1.703125 -4.25 L 1.703125 -3.90625 Z M 3.09375 -3.90625 "/></g></g></g><g fill="#ffffff" fill-opacity="1"><g transform="translate(147.078479, 50.555263)"><g><path d="M 2.359375 0.09375 C 1.410156 0.09375 0.9375 -0.425781 0.9375 -1.46875 L 0.9375 -5.734375 L 0.25 -5.734375 L 0.25 -6.53125 L 0.9375 -6.53125 L 0.9375 -8.453125 L 2.15625 -8.453125 L 2.15625 -6.53125 L 3.203125 -6.53125 L 3.203125 -5.734375 L 2.15625 -5.734375 L 2.15625 -1.546875 C 2.15625 -1.285156 2.191406 -1.101562 2.265625 -1 C 2.347656 -0.894531 2.507812 -0.84375 2.75 -0.84375 C 2.894531 -0.84375 3.039062 -0.851562 3.1875 -0.875 L 3.1875 0.015625 C 2.882812 0.0664062 2.609375 0.09375 2.359375 0.09375 Z M 2.359375 0.09375 "/></g></g></g><g fill="#ffffff" fill-opacity="1"><g transform="translate(150.562521, 50.555263)"><g><path d="M 0.640625 -6.53125 L 1.859375 -6.53125 L 1.859375 -5.609375 C 2.078125 -5.984375 2.304688 -6.242188 2.546875 -6.390625 C 2.785156 -6.546875 3.035156 -6.625 3.296875 -6.625 C 3.367188 -6.625 3.4375 -6.617188 3.5 -6.609375 L 3.5 -5.265625 C 3.257812 -5.359375 3.035156 -5.40625 2.828125 -5.40625 C 2.628906 -5.40625 2.453125 -5.359375 2.296875 -5.265625 C 2.140625 -5.171875 1.992188 -5.007812 1.859375 -4.78125 L 1.859375 0 L 0.640625 0 Z M 0.640625 -6.53125 "/></g></g></g><g fill="#ffffff" fill-opacity="1"><g transform="translate(154.193617, 50.555263)"><g><path d="M 0.6875 -8.78125 L 1.90625 -8.78125 L 1.90625 -7.515625 L 0.6875 -7.515625 Z M 0.6875 -6.53125 L 1.90625 -6.53125 L 1.90625 0 L 0.6875 0 Z M 0.6875 -6.53125 "/></g></g></g><g fill="#ffffff" fill-opacity="1"><g transform="translate(156.784025, 50.555263)"><g><path d="M 2.953125 0.09375 C 2.554688 0.09375 2.1875 -0.09375 1.84375 -0.46875 L 1.84375 0 L 0.640625 0 L 0.640625 -9.15625 L 1.84375 -9.15625 L 1.84375 -6.015625 C 2.195312 -6.421875 2.609375 -6.625 3.078125 -6.625 C 3.671875 -6.625 4.066406 -6.367188 4.265625 -5.859375 C 4.460938 -5.359375 4.5625 -4.796875 4.5625 -4.171875 L 4.5625 -2.59375 C 4.5625 -0.800781 4.023438 0.09375 2.953125 0.09375 Z M 2.703125 -0.859375 C 2.984375 -0.859375 3.160156 -1 3.234375 -1.28125 C 3.316406 -1.5625 3.359375 -2 3.359375 -2.59375 L 3.359375 -4.171875 C 3.359375 -4.648438 3.3125 -5.019531 3.21875 -5.28125 C 3.132812 -5.539062 2.945312 -5.671875 2.65625 -5.671875 C 2.394531 -5.671875 2.125 -5.5625 1.84375 -5.34375 L 1.84375 -1.15625 C 2.09375 -0.957031 2.378906 -0.859375 2.703125 -0.859375 Z M 2.703125 -0.859375 "/></g></g></g><g fill="#ffffff" fill-opacity="1"><g transform="translate(161.840402, 50.555263)"><g><path d="M 1.546875 0.09375 C 1.191406 0.09375 0.9375 -0.03125 0.78125 -0.28125 C 0.632812 -0.539062 0.5625 -0.863281 0.5625 -1.25 L 0.5625 -6.53125 L 1.78125 -6.53125 L 1.78125 -1.609375 C 1.78125 -1.359375 1.816406 -1.171875 1.890625 -1.046875 C 1.960938 -0.921875 2.097656 -0.859375 2.296875 -0.859375 C 2.535156 -0.859375 2.816406 -0.992188 3.140625 -1.265625 L 3.140625 -6.53125 L 4.359375 -6.53125 L 4.359375 0 L 3.140625 0 L 3.140625 -0.640625 C 2.617188 -0.148438 2.085938 0.09375 1.546875 0.09375 Z M 1.546875 0.09375 "/></g></g></g><g fill="#ffffff" fill-opacity="1"><g transform="translate(166.817602, 50.555263)"><g><path d="M 2.125 0.09375 C 1.59375 0.09375 1.160156 -0.0703125 0.828125 -0.40625 C 0.503906 -0.738281 0.320312 -1.179688 0.28125 -1.734375 L 1.296875 -2.046875 C 1.347656 -1.617188 1.445312 -1.300781 1.59375 -1.09375 C 1.75 -0.894531 1.960938 -0.796875 2.234375 -0.796875 C 2.441406 -0.796875 2.601562 -0.859375 2.71875 -0.984375 C 2.832031 -1.109375 2.890625 -1.28125 2.890625 -1.5 C 2.890625 -1.6875 2.847656 -1.851562 2.765625 -2 C 2.679688 -2.15625 2.546875 -2.3125 2.359375 -2.46875 L 1.25 -3.421875 C 0.988281 -3.640625 0.785156 -3.867188 0.640625 -4.109375 C 0.503906 -4.359375 0.4375 -4.660156 0.4375 -5.015625 C 0.4375 -5.523438 0.585938 -5.921875 0.890625 -6.203125 C 1.191406 -6.484375 1.601562 -6.625 2.125 -6.625 C 2.625 -6.625 3.015625 -6.460938 3.296875 -6.140625 C 3.578125 -5.828125 3.742188 -5.414062 3.796875 -4.90625 L 2.96875 -4.609375 C 2.914062 -4.972656 2.828125 -5.25 2.703125 -5.4375 C 2.585938 -5.632812 2.410156 -5.734375 2.171875 -5.734375 C 1.972656 -5.734375 1.816406 -5.664062 1.703125 -5.53125 C 1.585938 -5.40625 1.53125 -5.25 1.53125 -5.0625 C 1.53125 -4.820312 1.640625 -4.601562 1.859375 -4.40625 L 3.015625 -3.34375 C 3.304688 -3.070312 3.53125 -2.804688 3.6875 -2.546875 C 3.851562 -2.285156 3.9375 -1.960938 3.9375 -1.578125 C 3.9375 -1.035156 3.773438 -0.617188 3.453125 -0.328125 C 3.128906 -0.046875 2.6875 0.09375 2.125 0.09375 Z M 2.125 0.09375 "/></g></g></g><g fill="#ffffff" fill-opacity="1"><g transform="translate(171.048223, 50.555263)"><g><path d="M 0.6875 -8.78125 L 1.90625 -8.78125 L 1.90625 -7.515625 L 0.6875 -7.515625 Z M 0.6875 -6.53125 L 1.90625 -6.53125 L 1.90625 0 L 0.6875 0 Z M 0.6875 -6.53125 "/></g></g></g><g fill="#ffffff" fill-opacity="1"><g transform="translate(173.638632, 50.555263)"><g/></g></g><g fill="#ffffff" fill-opacity="1"><g transform="translate(176.22904, 50.555263)"><g><path d="M 0.78125 -9.15625 L 2.03125 -9.15625 L 2.03125 0 L 0.78125 0 Z M 0.78125 -9.15625 "/></g></g></g><g fill="#ffffff" fill-opacity="1"><g transform="translate(179.034372, 50.555263)"><g><path d="M 0.609375 -6.53125 L 1.828125 -6.53125 L 1.828125 -5.890625 C 2.347656 -6.378906 2.878906 -6.625 3.421875 -6.625 C 3.773438 -6.625 4.023438 -6.492188 4.171875 -6.234375 C 4.328125 -5.984375 4.40625 -5.671875 4.40625 -5.296875 L 4.40625 0 L 3.1875 0 L 3.1875 -4.9375 C 3.1875 -5.1875 3.148438 -5.367188 3.078125 -5.484375 C 3.003906 -5.609375 2.867188 -5.671875 2.671875 -5.671875 C 2.429688 -5.671875 2.148438 -5.535156 1.828125 -5.265625 L 1.828125 0 L 0.609375 0 Z M 0.609375 -6.53125 "/></g></g></g><g fill="#ffffff" fill-opacity="1"><g transform="translate(184.000256, 50.555263)"><g><path d="M 2.125 0.09375 C 1.5625 0.09375 1.144531 -0.109375 0.875 -0.515625 C 0.613281 -0.929688 0.484375 -1.613281 0.484375 -2.5625 L 0.484375 -3.828125 C 0.484375 -4.703125 0.597656 -5.382812 0.828125 -5.875 C 1.054688 -6.375 1.476562 -6.625 2.09375 -6.625 C 2.476562 -6.625 2.835938 -6.457031 3.171875 -6.125 L 3.171875 -9.15625 L 4.390625 -9.15625 L 4.390625 0 L 3.171875 0 L 3.171875 -0.421875 C 2.859375 -0.078125 2.507812 0.09375 2.125 0.09375 Z M 2.4375 -0.859375 C 2.675781 -0.859375 2.921875 -0.941406 3.171875 -1.109375 L 3.171875 -5.390625 C 2.898438 -5.578125 2.644531 -5.671875 2.40625 -5.671875 C 1.9375 -5.671875 1.703125 -5.21875 1.703125 -4.3125 L 1.703125 -2.46875 C 1.703125 -1.9375 1.75 -1.535156 1.84375 -1.265625 C 1.9375 -0.992188 2.132812 -0.859375 2.4375 -0.859375 Z M 2.4375 -0.859375 "/></g></g></g><g fill="#ffffff" fill-opacity="1"><g transform="translate(189.00008, 50.555263)"><g><path d="M 0.640625 -6.53125 L 1.859375 -6.53125 L 1.859375 -5.609375 C 2.078125 -5.984375 2.304688 -6.242188 2.546875 -6.390625 C 2.785156 -6.546875 3.035156 -6.625 3.296875 -6.625 C 3.367188 -6.625 3.4375 -6.617188 3.5 -6.609375 L 3.5 -5.265625 C 3.257812 -5.359375 3.035156 -5.40625 2.828125 -5.40625 C 2.628906 -5.40625 2.453125 -5.359375 2.296875 -5.265625 C 2.140625 -5.171875 1.992188 -5.007812 1.859375 -4.78125 L 1.859375 0 L 0.640625 0 Z M 0.640625 -6.53125 "/></g></g></g><g fill="#ffffff" fill-opacity="1"><g transform="translate(192.631176, 50.555263)"><g><path d="M 1.78125 0.09375 C 1.53125 0.09375 1.304688 0.0195312 1.109375 -0.125 C 0.910156 -0.269531 0.753906 -0.457031 0.640625 -0.6875 C 0.523438 -0.925781 0.46875 -1.171875 0.46875 -1.421875 C 0.46875 -1.929688 0.578125 -2.347656 0.796875 -2.671875 C 1.015625 -2.992188 1.296875 -3.25 1.640625 -3.4375 C 1.984375 -3.625 2.453125 -3.835938 3.046875 -4.078125 L 3.046875 -4.546875 C 3.046875 -4.972656 3.003906 -5.273438 2.921875 -5.453125 C 2.835938 -5.628906 2.660156 -5.71875 2.390625 -5.71875 C 1.929688 -5.71875 1.703125 -5.410156 1.703125 -4.796875 L 1.703125 -4.46875 L 0.515625 -4.515625 C 0.523438 -5.234375 0.6875 -5.765625 1 -6.109375 C 1.320312 -6.453125 1.816406 -6.625 2.484375 -6.625 C 3.109375 -6.625 3.5625 -6.453125 3.84375 -6.109375 C 4.125 -5.765625 4.265625 -5.25 4.265625 -4.5625 L 4.265625 -1.578125 C 4.265625 -1.085938 4.300781 -0.5625 4.375 0 L 3.265625 0 C 3.179688 -0.425781 3.128906 -0.75 3.109375 -0.96875 C 3.015625 -0.664062 2.859375 -0.410156 2.640625 -0.203125 C 2.421875 -0.00390625 2.132812 0.09375 1.78125 0.09375 Z M 2.265625 -0.953125 C 2.421875 -0.953125 2.570312 -1.015625 2.71875 -1.140625 C 2.875 -1.265625 2.984375 -1.382812 3.046875 -1.5 L 3.046875 -3.34375 C 2.722656 -3.164062 2.472656 -3.007812 2.296875 -2.875 C 2.117188 -2.75 1.972656 -2.597656 1.859375 -2.421875 C 1.742188 -2.242188 1.6875 -2.035156 1.6875 -1.796875 C 1.6875 -1.523438 1.734375 -1.316406 1.828125 -1.171875 C 1.929688 -1.023438 2.078125 -0.953125 2.265625 -0.953125 Z M 2.265625 -0.953125 "/></g></g></g><g fill="#ffffff" fill-opacity="1"><g transform="translate(197.450006, 50.555263)"><g><path d="M 0.609375 -6.53125 L 1.734375 -6.53125 L 1.734375 -5.921875 C 1.953125 -6.160156 2.191406 -6.34375 2.453125 -6.46875 C 2.710938 -6.59375 2.984375 -6.65625 3.265625 -6.65625 C 3.828125 -6.65625 4.179688 -6.378906 4.328125 -5.828125 C 4.785156 -6.378906 5.332031 -6.65625 5.96875 -6.65625 C 6.300781 -6.65625 6.570312 -6.53125 6.78125 -6.28125 C 7 -6.03125 7.109375 -5.648438 7.109375 -5.140625 L 7.109375 0 L 6 0 L 6 -5.0625 C 6 -5.363281 5.953125 -5.570312 5.859375 -5.6875 C 5.765625 -5.800781 5.625 -5.859375 5.4375 -5.859375 C 5.269531 -5.859375 5.097656 -5.8125 4.921875 -5.71875 C 4.742188 -5.625 4.578125 -5.492188 4.421875 -5.328125 L 4.421875 0 L 3.3125 0 L 3.3125 -5.0625 C 3.3125 -5.363281 3.257812 -5.570312 3.15625 -5.6875 C 3.0625 -5.800781 2.925781 -5.859375 2.75 -5.859375 C 2.59375 -5.859375 2.421875 -5.8125 2.234375 -5.71875 C 2.054688 -5.625 1.890625 -5.492188 1.734375 -5.328125 L 1.734375 0 L 0.609375 0 Z M 0.609375 -6.53125 "/></g></g></g><g fill="#ffffff" fill-opacity="1"><g transform="translate(205.142029, 50.555263)"><g><path d="M 1.78125 0.09375 C 1.53125 0.09375 1.304688 0.0195312 1.109375 -0.125 C 0.910156 -0.269531 0.753906 -0.457031 0.640625 -0.6875 C 0.523438 -0.925781 0.46875 -1.171875 0.46875 -1.421875 C 0.46875 -1.929688 0.578125 -2.347656 0.796875 -2.671875 C 1.015625 -2.992188 1.296875 -3.25 1.640625 -3.4375 C 1.984375 -3.625 2.453125 -3.835938 3.046875 -4.078125 L 3.046875 -4.546875 C 3.046875 -4.972656 3.003906 -5.273438 2.921875 -5.453125 C 2.835938 -5.628906 2.660156 -5.71875 2.390625 -5.71875 C 1.929688 -5.71875 1.703125 -5.410156 1.703125 -4.796875 L 1.703125 -4.46875 L 0.515625 -4.515625 C 0.523438 -5.234375 0.6875 -5.765625 1 -6.109375 C 1.320312 -6.453125 1.816406 -6.625 2.484375 -6.625 C 3.109375 -6.625 3.5625 -6.453125 3.84375 -6.109375 C 4.125 -5.765625 4.265625 -5.25 4.265625 -4.5625 L 4.265625 -1.578125 C 4.265625 -1.085938 4.300781 -0.5625 4.375 0 L 3.265625 0 C 3.179688 -0.425781 3.128906 -0.75 3.109375 -0.96875 C 3.015625 -0.664062 2.859375 -0.410156 2.640625 -0.203125 C 2.421875 -0.00390625 2.132812 0.09375 1.78125 0.09375 Z M 2.265625 -0.953125 C 2.421875 -0.953125 2.570312 -1.015625 2.71875 -1.140625 C 2.875 -1.265625 2.984375 -1.382812 3.046875 -1.5 L 3.046875 -3.34375 C 2.722656 -3.164062 2.472656 -3.007812 2.296875 -2.875 C 2.117188 -2.75 1.972656 -2.597656 1.859375 -2.421875 C 1.742188 -2.242188 1.6875 -2.035156 1.6875 -1.796875 C 1.6875 -1.523438 1.734375 -1.316406 1.828125 -1.171875 C 1.929688 -1.023438 2.078125 -0.953125 2.265625 -0.953125 Z M 2.265625 -0.953125 "/></g></g></g><g fill="#ffffff" fill-opacity="1"><g transform="translate(209.960859, 50.555263)"><g><path d="M 0.515625 0.71875 C 0.960938 0.71875 1.269531 0.679688 1.4375 0.609375 C 1.613281 0.546875 1.703125 0.414062 1.703125 0.21875 C 1.703125 0.132812 1.617188 -0.257812 1.453125 -0.96875 L 0.140625 -6.53125 L 1.359375 -6.53125 L 2.234375 -1.65625 L 3.09375 -6.53125 L 4.3125 -6.53125 L 2.75 0.359375 C 2.644531 0.816406 2.421875 1.144531 2.078125 1.34375 C 1.742188 1.539062 1.269531 1.640625 0.65625 1.640625 L 0.515625 1.640625 Z M 0.515625 0.71875 "/></g></g></g><g fill="#ffffff" fill-opacity="1"><g transform="translate(214.395088, 50.555263)"><g><path d="M 1.546875 0.09375 C 1.191406 0.09375 0.9375 -0.03125 0.78125 -0.28125 C 0.632812 -0.539062 0.5625 -0.863281 0.5625 -1.25 L 0.5625 -6.53125 L 1.78125 -6.53125 L 1.78125 -1.609375 C 1.78125 -1.359375 1.816406 -1.171875 1.890625 -1.046875 C 1.960938 -0.921875 2.097656 -0.859375 2.296875 -0.859375 C 2.535156 -0.859375 2.816406 -0.992188 3.140625 -1.265625 L 3.140625 -6.53125 L 4.359375 -6.53125 L 4.359375 0 L 3.140625 0 L 3.140625 -0.640625 C 2.617188 -0.148438 2.085938 0.09375 1.546875 0.09375 Z M 1.546875 0.09375 "/></g></g></g></svg>